<svg version="1.1" id="Layer_1" xmlns="http://www.w3.org/2000/svg" xmlns:xlink="http://www.w3.org/1999/xlink" x="0px" y="0px"
	 width="100%" viewBox="0 0 512 512" enable-background="new 0 0 512 512" xml:space="preserve">
<path fill="none" opacity="1.000000" stroke="none" 
	d="
M1.000000,230.000000 
	C1.000000,153.699387 1.000000,77.398781 1.000000,1.049083 
	C171.560776,1.049083 342.121582,1.049083 513.000000,1.049083 
	C513.000000,93.687317 513.000000,186.375000 512.922974,279.924011 
	C511.969574,281.252594 510.698059,281.490967 510.275238,282.220917 
	C502.208069,296.148560 494.194550,310.108185 486.328369,324.149963 
	C485.588440,325.470764 485.907074,327.384583 485.734192,329.023071 
	C487.135742,328.009125 489.039856,327.297363 489.859711,325.933685 
	C496.786438,314.412811 503.490814,302.758545 510.349152,291.195984 
	C510.900299,290.266754 512.101074,289.722931 513.000000,289.000000 
	C513.000000,363.632874 513.000000,438.265747 513.000000,512.949341 
	C342.444397,512.949341 171.888763,512.949341 1.000000,512.949341 
	C1.000000,436.312775 1.000000,359.625031 1.054159,282.066284 
	C2.293458,280.148804 3.851411,279.319397 4.606568,278.022522 
	C12.965211,263.667908 21.148245,249.211136 29.494303,234.849121 
	C32.500919,229.675308 35.924759,224.743439 38.912708,219.559662 
	C39.585346,218.392715 39.232029,216.634415 39.350998,215.148331 
	C38.094055,215.928452 36.338371,216.406204 35.654701,217.533875 
	C24.800888,235.436584 14.096451,253.429794 3.293926,271.363800 
	C2.849307,272.101959 1.778873,272.463165 0.999998,273.000000 
	C1.000000,261.312439 1.000000,249.624878 1.343589,237.438171 
	C13.484954,227.152206 16.021702,208.471939 5.568465,201.934021 
	C6.169994,204.541290 6.403042,206.600494 7.121204,208.473740 
	C9.588998,214.910736 7.341107,225.612228 2.344054,230.174957 
	C2.128771,230.371521 1.458385,230.069672 1.000000,230.000000 
M271.070007,339.500488 
	C271.070007,353.237061 271.070007,366.973633 271.070007,380.604431 
	C287.395905,380.604431 303.954437,380.604431 321.407837,380.604431 
	C321.407837,308.191986 321.407837,236.172470 321.407837,163.998688 
	C305.266479,163.998688 288.514557,163.998688 271.236206,163.998688 
	C271.236206,189.154846 271.236206,214.019745 271.236206,239.034027 
	C261.281219,239.034027 251.855896,239.034027 241.550812,239.034027 
	C242.321045,213.887421 243.082382,189.030823 243.848297,164.025528 
	C226.701233,164.025528 209.971054,164.025528 192.478424,164.025528 
	C192.478424,236.387482 192.478424,308.428284 192.478424,380.626038 
	C208.788269,380.626038 225.325287,380.626038 242.109207,380.626038 
	C242.109207,357.188385 242.109207,334.123047 242.109207,311.136414 
	C252.077881,311.136414 261.627319,311.136414 271.070374,311.136414 
	C271.070374,320.548004 271.070374,329.524200 271.070007,339.500488 
M480.225525,224.288437 
	C484.697327,230.651978 489.247589,236.962860 493.581207,243.419144 
	C494.562225,244.880753 494.948364,246.812897 495.338898,248.587723 
	C497.434845,258.113678 496.532562,267.721191 493.567902,276.692871 
	C487.440948,295.234528 476.472260,312.040222 473.599335,331.796631 
	C473.530212,332.271973 473.156952,332.694824 473.010040,333.168365 
	C467.544495,350.788025 470.724518,362.077301 485.230469,372.921143 
	C488.441223,370.016388 485.601898,368.235779 483.810974,366.680511 
	C474.481323,358.578278 473.108795,348.378906 475.862335,337.126129 
	C477.319580,331.170654 479.093231,325.290802 480.800140,319.398834 
	C481.767090,316.061127 482.645660,312.666229 483.986450,309.474518 
	C487.524231,301.053009 491.188263,292.680481 494.995667,284.377258 
	C499.782684,273.937714 501.151733,262.890381 499.843536,251.726349 
	C499.250122,246.662216 496.992920,241.437119 494.258087,237.053955 
	C488.563293,227.926712 482.113617,219.303253 473.369751,212.638840 
	C467.701050,208.318253 462.044952,203.866455 457.020081,198.837128 
	C441.486725,183.289871 426.377197,167.319672 410.877716,151.737869 
	C396.172485,136.954544 390.517639,119.345192 393.544617,98.877724 
	C395.855835,83.249847 398.028137,67.569275 405.590881,53.302242 
	C406.778809,51.061192 408.040009,48.349800 403.720337,47.350430 
	C401.035828,53.686733 397.801483,59.772770 395.884247,66.248734 
	C393.627625,73.871078 392.626740,81.856987 390.882385,89.640663 
	C384.703125,117.213898 392.433105,139.578949 412.626801,159.788574 
	C434.500824,181.679871 455.603119,204.278397 480.225525,224.288437 
M104.383423,386.104980 
	C100.067184,381.031921 95.959770,375.761810 91.393944,370.924316 
	C79.633667,358.464294 68.350044,345.431122 55.581745,334.083191 
	C44.596416,324.319855 35.648689,313.392731 28.473192,300.789032 
	C27.669209,299.376801 27.313568,297.671143 26.941444,296.057434 
	C24.607746,285.937469 26.433441,275.996521 29.886963,266.658844 
	C36.491840,248.800491 48.024986,232.925735 51.407249,213.715103 
	C51.601658,212.610886 52.529305,211.654770 52.863827,210.553253 
	C55.731014,201.112167 57.568329,191.479828 51.641930,182.656982 
	C43.965645,171.229034 34.030144,161.902603 22.692917,153.981461 
	C19.724918,156.405060 21.414402,157.720779 23.315422,159.507553 
	C30.698023,166.446487 38.041813,173.437515 45.145287,180.659714 
	C53.090515,188.737747 52.172516,198.441040 49.391609,208.246536 
	C47.900345,213.504730 46.195675,218.710648 44.371677,223.863846 
	C42.660900,228.697144 41.003456,233.597382 38.731201,238.174606 
	C32.606457,250.512299 26.252745,262.598114 23.091850,276.287506 
	C18.352522,296.812836 28.168715,311.705933 40.796432,325.435608 
	C49.209320,334.582672 59.191715,342.276428 67.725845,351.324066 
	C80.743355,365.124878 93.374420,379.314850 105.643532,393.785614 
	C111.061264,400.175568 116.025230,407.247040 119.716606,414.737793 
	C126.056496,427.603088 124.384888,441.332764 121.572098,454.874756 
	C120.557045,459.761658 119.204964,464.587189 118.412392,469.506104 
	C118.194740,470.856873 119.442902,472.443848 120.018440,473.922424 
	C120.743889,472.826904 121.824944,471.822510 122.133080,470.620056 
	C123.453362,465.467926 124.553581,460.259155 125.720207,455.067932 
	C129.896988,436.482300 128.969803,418.553436 117.905762,402.332916 
	C114.088791,396.737000 109.229782,391.851868 104.383423,386.104980 
M439.176941,224.293671 
	C441.569641,226.612930 444.070740,228.831696 446.332458,231.272339 
	C451.062012,236.376114 457.298462,240.876022 459.968353,246.924988 
	C464.977997,258.275055 468.491058,270.614044 466.986755,283.264221 
	C465.714844,293.959717 462.780548,304.449524 460.807739,315.072296 
	C459.404968,322.625793 456.118469,328.824310 449.693817,333.295166 
	C448.793060,333.922028 448.634521,335.615570 448.132416,336.815338 
	C449.454865,336.697815 451.063690,337.026031 452.053223,336.390320 
	C458.362946,332.336975 462.285522,326.502167 464.019562,319.219849 
	C465.599243,312.585785 466.795837,305.842804 468.716156,299.310974 
	C473.957733,281.481720 470.392639,264.364716 464.908661,247.395004 
	C464.058868,244.765381 462.693481,241.992477 460.779694,240.068481 
	C450.703033,229.937912 441.196014,219.231659 428.612061,211.803421 
	C419.074768,206.173615 410.070526,199.604309 401.057465,193.134872 
	C394.179535,188.198029 387.675079,182.742493 380.975922,177.554535 
	C374.343231,172.418091 370.034607,165.853348 369.278748,157.420410 
	C368.372772,147.313293 369.318451,137.518311 374.672577,128.448944 
	C376.214874,125.836472 376.712585,122.550301 377.347778,119.501877 
	C377.495361,118.793518 376.246674,117.794212 375.640442,116.928787 
	C374.916138,117.661331 373.891602,118.267418 373.520416,119.148689 
	C372.053894,122.630447 371.062408,126.330635 369.408478,129.711945 
	C361.760040,145.348450 363.167969,166.092194 374.098969,176.491776 
	C382.725159,184.698593 392.476837,191.797455 402.144806,198.815063 
	C414.075043,207.474777 426.436340,215.540604 439.176941,224.293671 
M56.729557,241.122162 
	C51.445694,256.275818 50.169147,271.653229 54.615826,287.211060 
	C56.333027,293.219147 57.273701,300.172546 60.976219,304.745544 
	C69.828308,315.678833 79.180618,326.330048 91.285812,334.182159 
	C100.573883,340.206970 109.382133,347.007233 118.139107,353.803650 
	C124.955231,359.093811 131.316727,364.965881 137.965683,370.476288 
	C145.480438,376.704285 149.299164,384.448181 149.218033,394.376007 
	C149.141357,403.758820 147.458832,412.483521 142.400970,420.551788 
	C140.874252,422.987213 140.281677,426.073303 139.626831,428.944702 
	C139.462708,429.664337 140.713394,430.706573 141.313858,431.600555 
	C142.008530,431.027740 143.010910,430.595520 143.347519,429.859070 
	C145.400146,425.368103 147.339905,420.824036 149.246262,416.267975 
	C155.311478,401.772583 156.284714,379.936127 141.802948,368.329834 
	C127.323380,356.725250 112.755005,345.230408 98.149765,333.784210 
	C93.180786,329.890015 87.464348,326.816345 83.004234,322.436249 
	C75.672066,315.235657 67.058891,308.275543 62.676628,299.393127 
	C56.626770,287.130615 54.149708,273.026337 56.676853,259.051331 
	C58.476585,249.098923 61.697983,239.411194 64.021484,229.543304 
	C65.703766,222.398682 69.167580,216.688934 75.372101,212.601669 
	C76.398155,211.925766 76.707565,210.161987 77.348152,208.900940 
	C75.884689,209.065933 74.136581,208.771576 73.005318,209.472641 
	C66.982697,213.204849 62.878963,218.528717 60.943871,225.398590 
	C59.546619,230.359039 58.256580,235.349716 56.729557,241.122162 
M39.438461,126.942932 
	C51.945488,134.134293 62.881004,143.258026 72.403946,154.056137 
	C83.068863,166.149124 87.779099,181.001785 91.770462,196.199081 
	C92.122200,197.538361 93.783501,198.533707 94.836563,199.688797 
	C95.099892,198.207260 95.822533,196.638016 95.558838,195.257111 
	C90.114052,166.743729 74.446030,145.137054 50.571857,129.148727 
	C47.538200,127.117104 44.493389,125.063194 41.261120,123.392235 
	C40.359951,122.926361 38.768475,123.795815 37.493675,124.052673 
	C37.923733,124.896233 38.353790,125.739799 39.438461,126.942932 
M420.278564,224.384949 
	C418.868835,224.013489 417.459076,223.642029 416.049316,223.270569 
	C416.558411,224.673203 416.822845,226.244202 417.641510,227.433777 
	C418.563873,228.774002 420.009064,229.747009 421.186157,230.920532 
	C429.180145,238.890457 437.484406,246.581039 445.043152,254.945023 
	C450.569244,261.059784 453.124268,268.771790 451.882904,277.141876 
	C451.306824,281.026123 449.574036,284.726898 448.626556,288.575104 
	C448.332489,289.769531 448.896484,291.175201 449.067657,292.484161 
	C450.145020,291.715546 451.891510,291.145081 452.187561,290.145172 
	C453.728119,284.941864 455.700623,279.679596 456.035858,274.344421 
	C456.782318,262.465576 450.330292,253.441849 442.445007,245.479904 
	C435.430237,238.396881 428.009186,231.716263 420.278564,224.384949 
M448.312653,138.382248 
	C448.217102,132.559082 448.184448,126.733833 447.993195,120.913811 
	C447.922729,118.769821 447.706024,116.570908 447.104248,114.530281 
	C446.820068,113.566750 445.470703,112.917351 444.604004,112.125618 
	C444.183014,113.243706 443.397095,114.362129 443.398132,115.479836 
	C443.407288,125.440598 443.896942,135.412827 443.559204,145.358383 
	C443.266205,153.986282 446.480591,157.241684 454.540466,154.222153 
	C465.074982,150.275558 475.316071,145.545853 485.488251,141.235733 
	C484.984192,136.966660 483.108551,137.493271 480.584473,138.632401 
	C471.956818,142.526047 463.281921,146.319962 454.553741,149.981934 
	C452.687378,150.764984 450.521484,150.834106 447.584106,151.410629 
	C447.833130,146.781357 448.035278,143.022644 448.312653,138.382248 
M103.455284,324.215759 
	C106.376060,323.549744 105.817535,321.943665 104.399719,320.315735 
	C102.653679,318.310974 100.764984,316.430542 98.940094,314.494324 
	C91.990555,307.120911 84.569397,300.129364 78.210030,292.277863 
	C69.869560,281.980438 68.391151,270.412689 74.487274,258.207886 
	C75.161621,256.857819 74.815582,254.998032 74.942780,253.374649 
	C73.582191,254.413513 71.656998,255.161469 70.948601,256.536377 
	C64.065773,269.894897 65.392998,282.978210 74.732498,294.321289 
	C83.364983,304.805695 93.358498,314.169464 103.455284,324.215759 
M69.115219,428.922882 
	C69.702316,430.635071 70.289421,432.347229 70.876518,434.059418 
	C71.360382,434.051941 71.844246,434.044495 72.328110,434.037048 
	C72.776833,432.967133 73.575584,431.911591 73.620094,430.825134 
	C74.059959,420.090271 74.312172,409.347748 74.748451,398.612671 
	C75.010017,392.176910 71.783234,389.017090 65.537392,390.735199 
	C59.162178,392.488831 52.972126,394.960114 46.803123,397.377747 
	C45.697411,397.811066 45.087723,399.510071 44.249001,400.624695 
	C45.689087,400.755432 47.283096,401.352264 48.542652,400.936310 
	C54.039936,399.120941 59.357971,396.734711 64.899704,395.090240 
	C69.955887,393.589874 70.737801,394.647949 70.418037,399.739349 
	C69.826355,409.160614 69.494987,418.598175 69.115219,428.922882 
M368.204132,100.903931 
	C372.599091,85.004341 378.782532,69.849510 386.874756,55.458881 
	C387.490295,54.364334 386.957153,52.623871 386.957977,51.183640 
	C385.819946,51.868843 384.202972,52.274097 383.614655,53.280628 
	C372.026184,73.106125 364.616394,94.480118 360.464508,117.009521 
	C360.275970,118.032616 361.223480,119.265083 361.641846,120.400032 
	C362.561432,119.503258 364.023132,118.751770 364.308990,117.685158 
	C365.724152,112.405014 366.828644,107.041618 368.204132,100.903931 
M432.833466,347.021698 
	C429.446472,346.215210 429.624084,348.357483 430.169159,350.447968 
	C435.666779,371.532196 445.074768,390.245178 462.520111,404.183014 
	C464.995880,406.161011 466.389008,406.095734 467.123108,404.619568 
	C459.675812,395.597717 451.459076,387.750244 445.910675,378.330933 
	C440.342529,368.878235 437.434509,357.858551 432.833466,347.021698 
M436.786713,311.264160 
	C428.532806,325.878052 420.236908,340.468719 412.110199,355.152985 
	C411.505219,356.246094 412.112976,358.010315 412.156952,359.462585 
	C413.346252,358.625732 415.044708,358.057220 415.648376,356.911774 
	C424.636902,339.855103 432.612488,322.215027 445.009247,307.154938 
	C445.583374,306.457520 445.107056,304.895416 445.119995,303.736023 
	C444.003357,304.074036 442.549072,304.083588 441.837158,304.815399 
	C440.108215,306.592621 438.724365,308.705597 436.786713,311.264160 
M93.072395,227.600937 
	C98.720161,218.184586 104.383667,208.777603 110.005371,199.345718 
	C111.538391,196.773666 113.089050,194.192474 114.334091,191.478958 
	C114.778328,190.510788 114.342567,189.138824 114.308479,187.951172 
	C113.140511,188.516235 111.728302,188.839615 110.867958,189.709061 
	C109.849983,190.737823 109.290695,192.228058 108.562714,193.535034 
	C99.893967,209.098572 91.466347,224.811279 79.680603,238.381302 
	C78.973274,239.195724 79.261993,240.875259 79.087234,242.152237 
	C80.325974,241.687668 81.980217,241.578064 82.732300,240.697739 
	C86.188850,236.651733 89.393456,232.390503 93.072395,227.600937 
M502.052155,191.262314 
	C500.090576,181.934509 498.128998,172.606689 496.167419,163.278885 
	C495.441193,163.458298 494.714935,163.637711 493.988678,163.817123 
	C494.898346,184.596832 499.175140,204.507278 509.244202,222.922409 
	C509.906006,222.751938 510.567780,222.581451 511.229553,222.410980 
	C508.218719,212.301315 505.207886,202.191666 502.052155,191.262314 
M140.697449,477.260590 
	C145.680130,463.382141 150.681229,449.510284 155.619690,435.616119 
	C156.171158,434.064545 156.576355,432.393829 156.634064,430.763672 
	C156.660843,430.007904 155.824326,428.798492 155.128265,428.574432 
	C154.574417,428.396210 153.312195,429.229645 152.947540,429.921326 
	C152.345245,431.063751 152.310593,432.488708 151.867874,433.734589 
	C146.821365,447.936890 141.709503,462.116089 136.710266,476.334930 
	C135.993286,478.374115 135.173843,482.373718 135.421875,482.457825 
	C139.461288,483.827545 138.694778,479.548035 140.697449,477.260590 
M407.601288,90.013550 
	C403.648346,96.753448 399.623138,103.453140 395.823883,110.278618 
	C395.283478,111.249535 395.839844,112.830963 395.888580,114.129829 
	C397.029785,113.465797 398.650818,113.086990 399.240479,112.095070 
	C408.580414,96.383682 417.788086,80.593651 427.140717,64.625809 
	C425.726685,63.944881 424.632019,63.417732 423.461334,62.853989 
	C418.177490,71.879066 413.058716,80.622169 407.601288,90.013550 
M418.056061,115.648216 
	C419.189850,113.059906 420.150513,110.378075 421.489075,107.900421 
	C425.907379,99.722466 430.503784,91.640663 434.908661,83.455681 
	C435.422089,82.501678 435.166504,81.133827 435.267456,79.957848 
	C434.055603,80.348557 432.791443,80.630707 431.654968,81.177933 
	C431.124512,81.433342 430.749695,82.156616 430.459076,82.744354 
	C423.101501,97.624596 415.733185,112.499863 408.505646,127.443192 
	C408.092377,128.297714 408.859314,129.723053 409.076965,130.882736 
	C410.085938,130.291031 411.582672,129.943069 412.020844,129.066147 
	C414.098450,124.908318 415.887238,120.606171 418.056061,115.648216 
M460.146088,221.403015 
	C453.303589,215.620956 446.604523,209.656296 439.564087,204.126205 
	C435.427216,200.876801 430.804169,198.222672 426.258881,195.539505 
	C425.464478,195.070572 423.970428,195.786758 422.799530,195.955612 
	C423.471832,197.034927 423.903229,198.460587 424.862274,199.127625 
	C427.570435,201.011215 430.738983,202.280975 433.288239,204.335815 
	C440.648865,210.268814 447.741699,216.532791 455.049347,222.533325 
	C458.119202,225.054077 461.402954,227.334091 464.733521,229.502258 
	C465.459137,229.974625 466.800507,229.501114 467.858276,229.463242 
	C467.512512,228.353104 467.498444,226.874878 466.755554,226.205505 
	C464.919800,224.551392 462.750122,223.267883 460.146088,221.403015 
M37.030975,269.877075 
	C37.679211,267.475922 38.553627,265.105774 38.888519,262.661682 
	C39.080906,261.257629 38.398693,259.733704 38.110188,258.263763 
	C37.089195,259.310150 35.525593,260.190979 35.146549,261.433228 
	C33.890381,265.550171 32.823441,269.757568 32.113632,274.002167 
	C30.188927,285.511658 32.925816,295.209290 43.894131,301.062012 
	C46.166058,302.274384 47.679039,306.408752 51.386677,303.654297 
	C49.675900,301.721710 48.309216,299.204865 46.193962,297.959045 
	C37.669983,292.938782 34.502956,285.674896 36.005547,276.110352 
	C36.288338,274.310303 36.604942,272.515503 37.030975,269.877075 
M77.833939,333.670105 
	C71.065048,327.805786 64.358078,321.866425 57.452793,316.167358 
	C56.537979,315.412323 54.613750,315.880371 53.156990,315.781982 
	C53.796879,316.971680 54.173412,318.453857 55.118359,319.304810 
	C62.636635,326.075195 70.127953,332.887939 77.903915,339.355377 
	C82.972717,343.571259 88.453415,347.304291 93.890015,351.049835 
	C94.571411,351.519287 96.111900,350.741730 97.254349,350.541962 
	C96.702354,349.528259 96.390549,348.214630 95.559647,347.549194 
	C89.886673,343.005798 84.104599,338.598633 77.833939,333.670105 
M488.953156,253.815720 
	C485.771301,247.236389 479.386078,244.364365 473.665405,240.769440 
	C472.963257,240.328217 471.647064,240.864197 470.615387,240.947311 
	C470.988861,242.022903 471.058777,243.436371 471.800171,244.102478 
	C473.261292,245.415222 475.043610,246.406174 476.783173,247.367172 
	C484.462585,251.609604 487.908142,258.135986 486.906189,266.774261 
	C486.296600,272.029633 485.020691,277.205078 484.259064,282.447632 
	C484.103058,283.521759 484.904266,284.734924 485.264252,285.883972 
	C486.187897,285.213501 487.721405,284.700806 487.941864,283.848480 
	C490.440613,274.188293 492.971619,264.485596 488.953156,253.815720 
M445.459320,173.019943 
	C442.967529,169.543411 440.049408,166.290695 438.080414,162.539749 
	C434.846222,156.378616 432.305939,149.856598 429.281006,143.579300 
	C428.698334,142.370087 427.233154,141.586121 426.175079,140.605972 
	C425.973999,142.066681 425.138855,143.829346 425.668701,144.941986 
	C431.757843,157.729019 435.768829,171.805176 447.478638,181.191650 
	C448.239777,181.801758 449.417358,181.892349 450.401215,182.224609 
	C450.567200,181.177322 451.239868,179.786026 450.805542,179.146301 
	C449.423065,177.110077 447.628632,175.353577 445.459320,173.019943 
M76.064819,369.395721 
	C74.869102,368.014496 73.786461,366.507690 72.439209,365.294800 
	C71.490265,364.440491 70.181747,363.985596 69.033775,363.352356 
	C69.085037,364.814026 68.659088,366.544128 69.295990,367.676361 
	C70.330704,369.515717 72.213432,370.854431 73.466125,372.599792 
	C75.966782,376.083954 78.743546,379.480865 80.571129,383.312164 
	C83.572525,389.604095 85.833237,396.245758 88.589294,402.661316 
	C89.140076,403.943451 90.510719,404.873322 91.503326,405.965637 
	C91.783264,404.400238 92.705276,402.601257 92.235039,401.308807 
	C89.850105,394.753906 87.417297,388.178223 84.375443,381.913757 
	C82.305992,377.651855 79.206383,373.890167 76.064819,369.395721 
M429.446503,129.583435 
	C429.141266,130.173157 428.613586,130.748917 428.575500,131.355408 
	C428.486359,132.775177 428.631958,134.209686 428.682556,135.638214 
	C429.810364,134.897766 431.481262,134.409607 431.964447,133.369659 
	C433.423706,130.228714 434.602539,126.925652 435.564453,123.591644 
	C438.097656,114.811363 437.141968,104.868156 444.310211,97.642540 
	C444.530579,97.420395 444.772186,97.014587 444.715485,96.758224 
	C444.489288,95.735847 444.148865,94.738754 443.850677,93.732300 
	C442.913666,94.124222 441.614349,94.249077 441.097290,94.950539 
	C437.144440,100.313316 434.053772,105.923943 433.424316,112.906113 
	C432.938202,118.298401 431.027863,123.562294 429.446503,129.583435 
M476.320007,178.391190 
	C478.093903,184.449158 479.777283,190.536453 481.721222,196.539337 
	C482.092407,197.685669 483.491821,198.499039 484.416809,199.466019 
	C484.850800,198.241974 485.920654,196.828766 485.621399,195.822861 
	C482.222870,184.398468 480.098450,172.461945 472.980896,162.464798 
	C472.244537,161.430573 470.879242,160.844147 469.805817,160.049927 
	C469.651459,161.481323 468.935974,163.161911 469.441467,164.300278 
	C471.455353,168.835297 473.849670,173.201385 476.320007,178.391190 
M37.696484,345.702820 
	C34.398159,343.825165 33.680099,345.648010 34.364082,348.347198 
	C37.326187,360.036682 39.115108,372.148529 45.931984,382.515015 
	C46.577274,383.496307 48.015907,383.955841 49.086227,384.657593 
	C49.213593,383.331024 49.936031,381.635864 49.377472,380.734192 
	C42.845734,370.190155 41.238483,358.053955 37.696484,345.702820 
M41.446178,154.034271 
	C46.576832,159.013245 51.644421,164.060776 56.904316,168.899246 
	C57.718536,169.648209 59.413826,169.439362 60.701664,169.673462 
	C60.372860,168.501373 60.415154,166.944107 59.658989,166.215622 
	C49.999382,156.909500 40.225407,147.722092 30.480484,138.504517 
	C29.830776,138.848038 29.181068,139.191544 28.531361,139.535065 
	C29.014606,141.056656 29.054640,143.030319 30.061693,144.017639 
	C33.496994,147.385620 37.272747,150.406342 41.446178,154.034271 
M91.074318,446.435760 
	C88.854355,450.532898 88.854355,450.532898 92.589783,452.865845 
	C97.850037,442.100830 103.136971,431.412781 108.247978,420.641296 
	C108.832321,419.409790 108.432030,417.711029 108.488281,416.228943 
	C107.223740,417.167358 105.431793,417.831879 104.779411,419.088196 
	C100.193741,427.918640 95.842873,436.871033 91.074318,446.435760 
M476.585754,127.792892 
	C472.099945,129.238113 467.614136,130.683350 462.915039,132.197296 
	C462.205780,127.587891 462.011780,123.590912 460.901520,119.867119 
	C459.749969,116.004799 456.853210,115.681435 454.175018,118.924232 
	C459.418640,121.693954 457.800568,126.799339 458.225647,131.214859 
	C458.537933,134.458939 459.486359,137.007385 463.322693,136.014481 
	C468.985046,134.548950 474.549622,132.705399 481.504547,130.618027 
	C479.249420,129.031738 478.267181,128.340790 476.585754,127.792892 
M20.550083,344.888000 
	C17.362406,329.144043 13.789366,321.512207 7.693615,318.288696 
	C12.674778,333.057312 17.515356,347.409119 22.355932,361.760925 
	C22.774801,361.621765 23.193670,361.482574 23.612539,361.343414 
	C22.661234,356.131439 21.709929,350.919495 20.550083,344.888000 
M103.381134,462.821686 
	C103.948555,462.599182 104.775497,462.545013 105.045082,462.129364 
	C110.445816,453.802582 115.829010,445.463135 121.058327,437.028656 
	C121.571709,436.200562 121.060448,434.737213 121.024780,433.568726 
	C119.859108,434.103638 118.207672,434.315674 117.603973,435.224091 
	C112.385544,443.076050 107.307259,451.023468 102.352890,459.044739 
	C101.910660,459.760742 102.637497,461.198822 103.381134,462.821686 
M80.034615,428.503906 
	C80.120270,433.196533 75.555191,438.015228 80.753868,443.508728 
	C81.650406,439.861694 82.244705,436.976349 83.075195,434.160645 
	C84.945091,427.821045 86.987549,421.532043 88.826683,415.183899 
	C89.217361,413.835358 89.040329,412.322388 89.124840,410.885132 
	C87.842911,411.645874 85.863380,412.113922 85.400139,413.218109 
	C83.419510,417.939026 81.886276,422.847595 80.034615,428.503906 
M383.244019,163.178177 
	C384.367889,164.613785 385.303406,166.278717 386.678650,167.408234 
	C387.675110,168.226639 389.254547,168.335281 390.574005,168.760422 
	C390.210388,167.359161 390.059937,165.854950 389.442383,164.576324 
	C387.729645,161.030136 385.509583,157.700180 384.083527,154.052734 
	C382.763184,150.675735 382.319458,146.964996 381.241760,143.477829 
	C380.974274,142.612259 379.748169,142.042938 378.962738,141.337463 
	C378.438538,142.382599 377.265778,143.603714 377.493958,144.444687 
	C379.140747,150.513550 381.071106,156.505447 383.244019,163.178177 
M139.951752,406.465057 
	C140.427628,398.031952 138.326950,390.217377 134.139023,382.955048 
	C133.412750,381.695587 132.320541,380.510071 131.117233,379.713715 
	C130.385345,379.229340 129.116669,379.556000 128.089127,379.518311 
	C128.143646,380.424744 127.828232,381.706421 128.309052,382.180389 
	C134.074341,387.863800 134.497635,395.493530 136.185898,402.713501 
	C136.547348,404.259247 138.226959,405.496796 139.951752,406.465057 
M23.915195,205.532898 
	C19.431442,200.175934 14.947691,194.818970 10.463939,189.461990 
	C9.841496,189.844147 9.219051,190.226303 8.596608,190.608459 
	C9.390382,192.473114 9.862399,194.577866 11.040046,196.156097 
	C14.200670,200.391861 17.515688,204.536911 21.075020,208.439224 
	C22.596123,210.106918 22.879650,214.132996 26.597244,212.227310 
	C26.820637,212.112823 25.116171,208.237473 23.915195,205.532898 
M370.877991,45.473164 
	C370.095428,49.370777 369.127197,53.244705 368.625427,57.178139 
	C368.435547,58.666656 369.322083,60.292484 369.717987,61.855732 
	C370.665497,60.554718 372.163116,59.369461 372.465424,57.932690 
	C373.787933,51.647202 373.815125,44.991665 378.546661,39.815372 
	C378.923584,39.403046 378.613556,37.624569 378.125397,37.342907 
	C377.486023,36.973988 375.889832,37.124123 375.510101,37.641632 
	C373.867920,39.879631 372.519287,42.333004 370.877991,45.473164 
M459.915253,369.732574 
	C459.588287,366.085541 459.375000,362.423645 458.899780,358.796021 
	C458.490417,355.671173 457.919556,352.548950 457.111328,349.507629 
	C456.906616,348.737244 455.524963,348.279602 454.684143,347.678253 
	C454.182617,348.442047 453.177429,349.263794 453.257629,349.960663 
	C454.036377,356.728210 454.784241,363.513458 456.000885,370.210114 
	C456.558868,373.281433 458.369812,373.033997 459.915253,369.732574 
M66.959915,176.018402 
	C67.012726,177.844711 66.957245,179.681900 67.139366,181.495224 
	C67.619446,186.275162 68.107956,191.059311 68.837578,195.804199 
	C68.960022,196.600433 70.304329,197.208771 71.084061,197.903946 
	C71.648102,197.189484 72.742386,196.437103 72.694420,195.766403 
	C72.197906,188.823715 71.835434,181.842712 70.726326,174.987122 
	C70.300652,172.355911 68.146477,172.072403 66.959915,176.018402 
M13.907847,175.602844 
	C14.055117,176.992447 13.675190,179.077820 14.437631,179.655548 
	C18.520941,182.749557 22.821877,185.579239 27.213604,188.224686 
	C28.130133,188.776779 29.745798,188.168213 31.039280,188.094528 
	C30.487091,187.030533 30.208290,185.573624 29.337400,184.967697 
	C24.457542,181.572464 19.434790,178.382614 13.907847,175.602844 
M478.119354,386.563354 
	C478.383972,386.146301 478.951538,385.439667 478.869568,385.353943 
	C475.486389,381.814880 472.080292,378.294769 468.551117,374.903381 
	C468.229797,374.594604 466.931244,374.964417 466.353607,375.385529 
	C465.997559,375.645111 465.842316,376.948608 466.117493,377.190002 
	C470.008789,380.604095 473.989410,383.916382 478.119354,386.563354 
M54.188431,359.983551 
	C57.386612,360.521362 57.970932,359.085266 56.276348,356.753510 
	C54.632263,354.491241 52.663620,352.419373 50.585304,350.543243 
	C49.875069,349.902100 48.400341,350.107819 47.274902,349.926605 
	C47.476059,351.094177 47.310921,352.542572 47.949181,353.375000 
	C49.652817,355.596985 51.701714,357.554230 54.188431,359.983551 
M470.140350,189.473053 
	C468.722351,188.086395 467.404053,186.568176 465.836029,185.379425 
	C465.229462,184.919586 464.056854,185.206345 463.142120,185.152969 
	C463.161743,186.175156 462.760742,187.561111 463.274902,188.155548 
	C465.323334,190.523819 467.583710,192.729065 469.942047,194.793121 
	C470.458679,195.245255 472.032135,195.223358 472.512360,194.773026 
	C472.972900,194.341156 472.913055,192.956818 472.593628,192.196152 
	C472.232117,191.335297 471.327026,190.702713 470.140350,189.473053 
M55.384708,415.862793 
	C56.547054,416.914520 57.709400,417.966248 58.810066,418.962158 
	C59.686897,408.810669 58.491371,407.353149 51.257389,410.133148 
	C52.547607,411.840057 53.811352,413.511963 55.384708,415.862793 
z"/>
<path fill="#6625CB" opacity="1.000000" stroke="none" 
	d="
M0.999998,273.449982 
	C1.778873,272.463165 2.849307,272.101959 3.293926,271.363800 
	C14.096451,253.429794 24.800888,235.436584 35.654701,217.533875 
	C36.338371,216.406204 38.094055,215.928452 39.350998,215.148331 
	C39.232029,216.634415 39.585346,218.392715 38.912708,219.559662 
	C35.924759,224.743439 32.500919,229.675308 29.494303,234.849121 
	C21.148245,249.211136 12.965211,263.667908 4.606568,278.022522 
	C3.851411,279.319397 2.293458,280.148804 1.054159,281.597656 
	C1.000000,279.299988 1.000000,276.599976 0.999998,273.449982 
z"/>
<path fill="#6625CA" opacity="1.000000" stroke="none" 
	d="
M513.000000,288.550018 
	C512.101074,289.722931 510.900299,290.266754 510.349152,291.195984 
	C503.490814,302.758545 496.786438,314.412811 489.859711,325.933685 
	C489.039856,327.297363 487.135742,328.009125 485.734192,329.023071 
	C485.907074,327.384583 485.588440,325.470764 486.328369,324.149963 
	C494.194550,310.108185 502.208069,296.148560 510.275238,282.220917 
	C510.698059,281.490967 511.969574,281.252594 512.922974,280.392700 
	C513.000000,282.700012 513.000000,285.400024 513.000000,288.550018 
z"/>
<path fill="#6626CC" opacity="1.000000" stroke="none" 
	d="
M1.000000,230.437500 
	C1.458385,230.069672 2.128771,230.371521 2.344054,230.174957 
	C7.341107,225.612228 9.588998,214.910736 7.121204,208.473740 
	C6.403042,206.600494 6.169994,204.541290 5.568465,201.934021 
	C16.021702,208.471939 13.484954,227.152206 1.343589,236.969513 
	C1.000000,234.958328 1.000000,232.916672 1.000000,230.437500 
z"/>
<path fill="#6D28D8" opacity="1.000000" stroke="none" 
	d="
M271.070190,339.000427 
	C271.070374,329.524200 271.070374,320.548004 271.070374,311.136414 
	C261.627319,311.136414 252.077881,311.136414 242.109207,311.136414 
	C242.109207,334.123047 242.109207,357.188385 242.109207,380.626038 
	C225.325287,380.626038 208.788269,380.626038 192.478424,380.626038 
	C192.478424,308.428284 192.478424,236.387482 192.478424,164.025528 
	C209.971054,164.025528 226.701233,164.025528 243.848297,164.025528 
	C243.082382,189.030823 242.321045,213.887421 241.550812,239.034027 
	C251.855896,239.034027 261.281219,239.034027 271.236206,239.034027 
	C271.236206,214.019745 271.236206,189.154846 271.236206,163.998688 
	C288.514557,163.998688 305.266479,163.998688 321.407837,163.998688 
	C321.407837,236.172470 321.407837,308.191986 321.407837,380.604431 
	C303.954437,380.604431 287.395905,380.604431 271.070007,380.604431 
	C271.070007,366.973633 271.070007,353.237061 271.070190,339.000427 
z"/>
<path fill="#6626CC" opacity="1.000000" stroke="none" 
	d="
M479.971344,224.039368 
	C455.603119,204.278397 434.500824,181.679871 412.626801,159.788574 
	C392.433105,139.578949 384.703125,117.213898 390.882385,89.640663 
	C392.626740,81.856987 393.627625,73.871078 395.884247,66.248734 
	C397.801483,59.772770 401.035828,53.686733 403.720337,47.350430 
	C408.040009,48.349800 406.778809,51.061192 405.590881,53.302242 
	C398.028137,67.569275 395.855835,83.249847 393.544617,98.877724 
	C390.517639,119.345192 396.172485,136.954544 410.877716,151.737869 
	C426.377197,167.319672 441.486725,183.289871 457.020081,198.837128 
	C462.044952,203.866455 467.701050,208.318253 473.369751,212.638840 
	C482.113617,219.303253 488.563293,227.926712 494.258087,237.053955 
	C496.992920,241.437119 499.250122,246.662216 499.843536,251.726349 
	C501.151733,262.890381 499.782684,273.937714 494.995667,284.377258 
	C491.188263,292.680481 487.524231,301.053009 483.986450,309.474518 
	C482.645660,312.666229 481.767090,316.061127 480.800140,319.398834 
	C479.093231,325.290802 477.319580,331.170654 475.862335,337.126129 
	C473.108795,348.378906 474.481323,358.578278 483.810974,366.680511 
	C485.601898,368.235779 488.441223,370.016388 485.230469,372.921143 
	C470.724518,362.077301 467.544495,350.788025 473.010040,333.168365 
	C473.156952,332.694824 473.530212,332.271973 473.599335,331.796631 
	C476.472260,312.040222 487.440948,295.234528 493.567902,276.692871 
	C496.532562,267.721191 497.434845,258.113678 495.338898,248.587723 
	C494.948364,246.812897 494.562225,244.880753 493.581207,243.419144 
	C489.247589,236.962860 484.697327,230.651978 479.971344,224.039368 
z"/>
<path fill="#6726CD" opacity="1.000000" stroke="none" 
	d="
M104.615097,386.373535 
	C109.229782,391.851868 114.088791,396.737000 117.905762,402.332916 
	C128.969803,418.553436 129.896988,436.482300 125.720207,455.067932 
	C124.553581,460.259155 123.453362,465.467926 122.133080,470.620056 
	C121.824944,471.822510 120.743889,472.826904 120.018440,473.922424 
	C119.442902,472.443848 118.194740,470.856873 118.412392,469.506104 
	C119.204964,464.587189 120.557045,459.761658 121.572098,454.874756 
	C124.384888,441.332764 126.056496,427.603088 119.716606,414.737793 
	C116.025230,407.247040 111.061264,400.175568 105.643532,393.785614 
	C93.374420,379.314850 80.743355,365.124878 67.725845,351.324066 
	C59.191715,342.276428 49.209320,334.582672 40.796432,325.435608 
	C28.168715,311.705933 18.352522,296.812836 23.091850,276.287506 
	C26.252745,262.598114 32.606457,250.512299 38.731201,238.174606 
	C41.003456,233.597382 42.660900,228.697144 44.371677,223.863846 
	C46.195675,218.710648 47.900345,213.504730 49.391609,208.246536 
	C52.172516,198.441040 53.090515,188.737747 45.145287,180.659714 
	C38.041813,173.437515 30.698023,166.446487 23.315422,159.507553 
	C21.414402,157.720779 19.724918,156.405060 22.692917,153.981461 
	C34.030144,161.902603 43.965645,171.229034 51.641930,182.656982 
	C57.568329,191.479828 55.731014,201.112167 52.863827,210.553253 
	C52.529305,211.654770 51.601658,212.610886 51.407249,213.715103 
	C48.024986,232.925735 36.491840,248.800491 29.886963,266.658844 
	C26.433441,275.996521 24.607746,285.937469 26.941444,296.057434 
	C27.313568,297.671143 27.669209,299.376801 28.473192,300.789032 
	C35.648689,313.392731 44.596416,324.319855 55.581745,334.083191 
	C68.350044,345.431122 79.633667,358.464294 91.393944,370.924316 
	C95.959770,375.761810 100.067184,381.031921 104.615097,386.373535 
z"/>
<path fill="#6726CD" opacity="1.000000" stroke="none" 
	d="
M438.894165,224.078369 
	C426.436340,215.540604 414.075043,207.474777 402.144806,198.815063 
	C392.476837,191.797455 382.725159,184.698593 374.098969,176.491776 
	C363.167969,166.092194 361.760040,145.348450 369.408478,129.711945 
	C371.062408,126.330635 372.053894,122.630447 373.520416,119.148689 
	C373.891602,118.267418 374.916138,117.661331 375.640442,116.928787 
	C376.246674,117.794212 377.495361,118.793518 377.347778,119.501877 
	C376.712585,122.550301 376.214874,125.836472 374.672577,128.448944 
	C369.318451,137.518311 368.372772,147.313293 369.278748,157.420410 
	C370.034607,165.853348 374.343231,172.418091 380.975922,177.554535 
	C387.675079,182.742493 394.179535,188.198029 401.057465,193.134872 
	C410.070526,199.604309 419.074768,206.173615 428.612061,211.803421 
	C441.196014,219.231659 450.703033,229.937912 460.779694,240.068481 
	C462.693481,241.992477 464.058868,244.765381 464.908661,247.395004 
	C470.392639,264.364716 473.957733,281.481720 468.716156,299.310974 
	C466.795837,305.842804 465.599243,312.585785 464.019562,319.219849 
	C462.285522,326.502167 458.362946,332.336975 452.053223,336.390320 
	C451.063690,337.026031 449.454865,336.697815 448.132385,336.815338 
	C448.634521,335.615570 448.793060,333.922028 449.693817,333.295166 
	C456.118469,328.824310 459.404968,322.625793 460.807739,315.072296 
	C462.780548,304.449524 465.714844,293.959717 466.986755,283.264221 
	C468.491058,270.614044 464.977997,258.275055 459.968353,246.924988 
	C457.298462,240.876022 451.062012,236.376114 446.332458,231.272339 
	C444.070740,228.831696 441.569641,226.612930 438.894165,224.078369 
z"/>
<path fill="#6626CC" opacity="1.000000" stroke="none" 
	d="
M56.824142,240.724533 
	C58.256580,235.349716 59.546619,230.359039 60.943871,225.398590 
	C62.878963,218.528717 66.982697,213.204849 73.005318,209.472641 
	C74.136581,208.771576 75.884689,209.065933 77.348152,208.900940 
	C76.707565,210.161987 76.398155,211.925766 75.372101,212.601669 
	C69.167580,216.688934 65.703766,222.398682 64.021484,229.543304 
	C61.697983,239.411194 58.476585,249.098923 56.676853,259.051331 
	C54.149708,273.026337 56.626770,287.130615 62.676628,299.393127 
	C67.058891,308.275543 75.672066,315.235657 83.004234,322.436249 
	C87.464348,326.816345 93.180786,329.890015 98.149765,333.784210 
	C112.755005,345.230408 127.323380,356.725250 141.802948,368.329834 
	C156.284714,379.936127 155.311478,401.772583 149.246262,416.267975 
	C147.339905,420.824036 145.400146,425.368103 143.347519,429.859070 
	C143.010910,430.595520 142.008530,431.027740 141.313858,431.600555 
	C140.713394,430.706573 139.462708,429.664337 139.626831,428.944702 
	C140.281677,426.073303 140.874252,422.987213 142.400970,420.551788 
	C147.458832,412.483521 149.141357,403.758820 149.218033,394.376007 
	C149.299164,384.448181 145.480438,376.704285 137.965683,370.476288 
	C131.316727,364.965881 124.955231,359.093811 118.139107,353.803650 
	C109.382133,347.007233 100.573883,340.206970 91.285812,334.182159 
	C79.180618,326.330048 69.828308,315.678833 60.976219,304.745544 
	C57.273701,300.172546 56.333027,293.219147 54.615826,287.211060 
	C50.169147,271.653229 51.445694,256.275818 56.824142,240.724533 
z"/>
<path fill="#6525C9" opacity="1.000000" stroke="none" 
	d="
M39.111156,126.763145 
	C38.353790,125.739799 37.923733,124.896233 37.493675,124.052673 
	C38.768475,123.795815 40.359951,122.926361 41.261120,123.392235 
	C44.493389,125.063194 47.538200,127.117104 50.571857,129.148727 
	C74.446030,145.137054 90.114052,166.743729 95.558838,195.257111 
	C95.822533,196.638016 95.099892,198.207260 94.836563,199.688797 
	C93.783501,198.533707 92.122200,197.538361 91.770462,196.199081 
	C87.779099,181.001785 83.068863,166.149124 72.403946,154.056137 
	C62.881004,143.258026 51.945488,134.134293 39.111156,126.763145 
z"/>
<path fill="#6625CA" opacity="1.000000" stroke="none" 
	d="
M420.523010,224.621490 
	C428.009186,231.716263 435.430237,238.396881 442.445007,245.479904 
	C450.330292,253.441849 456.782318,262.465576 456.035858,274.344421 
	C455.700623,279.679596 453.728119,284.941864 452.187561,290.145172 
	C451.891510,291.145081 450.145020,291.715546 449.067657,292.484161 
	C448.896484,291.175201 448.332489,289.769531 448.626556,288.575104 
	C449.574036,284.726898 451.306824,281.026123 451.882904,277.141876 
	C453.124268,268.771790 450.569244,261.059784 445.043152,254.945023 
	C437.484406,246.581039 429.180145,238.890457 421.186157,230.920532 
	C420.009064,229.747009 418.563873,228.774002 417.641510,227.433777 
	C416.822845,226.244202 416.558411,224.673203 416.049316,223.270569 
	C417.459076,223.642029 418.868835,224.013489 420.523010,224.621490 
z"/>
<path fill="#6625CB" opacity="1.000000" stroke="none" 
	d="
M448.275055,138.823090 
	C448.035278,143.022644 447.833130,146.781357 447.584106,151.410629 
	C450.521484,150.834106 452.687378,150.764984 454.553741,149.981934 
	C463.281921,146.319962 471.956818,142.526047 480.584473,138.632401 
	C483.108551,137.493271 484.984192,136.966660 485.488251,141.235733 
	C475.316071,145.545853 465.074982,150.275558 454.540466,154.222153 
	C446.480591,157.241684 443.266205,153.986282 443.559204,145.358383 
	C443.896942,135.412827 443.407288,125.440598 443.398132,115.479836 
	C443.397095,114.362129 444.183014,113.243706 444.604004,112.125618 
	C445.470703,112.917351 446.820068,113.566750 447.104248,114.530281 
	C447.706024,116.570908 447.922729,118.769821 447.993195,120.913811 
	C448.184448,126.733833 448.217102,132.559082 448.275055,138.823090 
z"/>
<path fill="#6625CB" opacity="1.000000" stroke="none" 
	d="
M103.103943,324.121277 
	C93.358498,314.169464 83.364983,304.805695 74.732498,294.321289 
	C65.392998,282.978210 64.065773,269.894897 70.948601,256.536377 
	C71.656998,255.161469 73.582191,254.413513 74.942780,253.374649 
	C74.815582,254.998032 75.161621,256.857819 74.487274,258.207886 
	C68.391151,270.412689 69.869560,281.980438 78.210030,292.277863 
	C84.569397,300.129364 91.990555,307.120911 98.940094,314.494324 
	C100.764984,316.430542 102.653679,318.310974 104.399719,320.315735 
	C105.817535,321.943665 106.376060,323.549744 103.103943,324.121277 
z"/>
<path fill="#6325C6" opacity="1.000000" stroke="none" 
	d="
M69.085205,428.475922 
	C69.494987,418.598175 69.826355,409.160614 70.418037,399.739349 
	C70.737801,394.647949 69.955887,393.589874 64.899704,395.090240 
	C59.357971,396.734711 54.039936,399.120941 48.542652,400.936310 
	C47.283096,401.352264 45.689087,400.755432 44.249008,400.624695 
	C45.087723,399.510071 45.697411,397.811066 46.803123,397.377747 
	C52.972126,394.960114 59.162178,392.488831 65.537392,390.735199 
	C71.783234,389.017090 75.010017,392.176910 74.748451,398.612671 
	C74.312172,409.347748 74.059959,420.090271 73.620094,430.825134 
	C73.575584,431.911591 72.776833,432.967133 72.328110,434.037048 
	C71.844246,434.044495 71.360382,434.051941 70.876518,434.059418 
	C70.289421,432.347229 69.702316,430.635071 69.085205,428.475922 
z"/>
<path fill="#6625CB" opacity="1.000000" stroke="none" 
	d="
M368.123413,101.305756 
	C366.828644,107.041618 365.724152,112.405014 364.308990,117.685158 
	C364.023132,118.751770 362.561432,119.503258 361.641846,120.400040 
	C361.223480,119.265083 360.275970,118.032616 360.464508,117.009521 
	C364.616394,94.480118 372.026184,73.106125 383.614655,53.280628 
	C384.202972,52.274097 385.819946,51.868843 386.957977,51.183643 
	C386.957153,52.623871 387.490295,54.364334 386.874756,55.458881 
	C378.782532,69.849510 372.599091,85.004341 368.123413,101.305756 
z"/>
<path fill="#6525CA" opacity="1.000000" stroke="none" 
	d="
M433.097046,347.273651 
	C437.434509,357.858551 440.342529,368.878235 445.910675,378.330933 
	C451.459076,387.750244 459.675812,395.597717 467.123108,404.619568 
	C466.389008,406.095734 464.995880,406.161011 462.520111,404.183014 
	C445.074768,390.245178 435.666779,371.532196 430.169159,350.447968 
	C429.624084,348.357483 429.446472,346.215210 433.097046,347.273651 
z"/>
<path fill="#6525C9" opacity="1.000000" stroke="none" 
	d="
M436.994141,310.973755 
	C438.724365,308.705597 440.108215,306.592621 441.837158,304.815399 
	C442.549072,304.083588 444.003357,304.074036 445.119995,303.736023 
	C445.107056,304.895416 445.583374,306.457520 445.009247,307.154938 
	C432.612488,322.215027 424.636902,339.855103 415.648376,356.911774 
	C415.044708,358.057220 413.346252,358.625732 412.156952,359.462585 
	C412.112976,358.010315 411.505219,356.246094 412.110199,355.152985 
	C420.236908,340.468719 428.532806,325.878052 436.994141,310.973755 
z"/>
<path fill="#6525C9" opacity="1.000000" stroke="none" 
	d="
M92.880424,227.903717 
	C89.393456,232.390503 86.188850,236.651733 82.732300,240.697739 
	C81.980217,241.578064 80.325974,241.687668 79.087234,242.152237 
	C79.261993,240.875259 78.973274,239.195724 79.680603,238.381302 
	C91.466347,224.811279 99.893967,209.098572 108.562714,193.535034 
	C109.290695,192.228058 109.849983,190.737823 110.867958,189.709061 
	C111.728302,188.839615 113.140511,188.516235 114.308479,187.951172 
	C114.342567,189.138824 114.778328,190.510788 114.334091,191.478958 
	C113.089050,194.192474 111.538391,196.773666 110.005371,199.345718 
	C104.383667,208.777603 98.720161,218.184586 92.880424,227.903717 
z"/>
<path fill="#6625CA" opacity="1.000000" stroke="none" 
	d="
M502.124603,191.672165 
	C505.207886,202.191666 508.218719,212.301315 511.229553,222.410980 
	C510.567780,222.581451 509.906006,222.751938 509.244202,222.922409 
	C499.175140,204.507278 494.898346,184.596832 493.988678,163.817123 
	C494.714935,163.637711 495.441193,163.458298 496.167419,163.278885 
	C498.128998,172.606689 500.090576,181.934509 502.124603,191.672165 
z"/>
<path fill="#6525C9" opacity="1.000000" stroke="none" 
	d="
M140.514023,477.586487 
	C138.694778,479.548035 139.461288,483.827545 135.421875,482.457825 
	C135.173843,482.373718 135.993286,478.374115 136.710266,476.334930 
	C141.709503,462.116089 146.821365,447.936890 151.867874,433.734589 
	C152.310593,432.488708 152.345245,431.063751 152.947540,429.921326 
	C153.312195,429.229645 154.574417,428.396210 155.128265,428.574432 
	C155.824326,428.798492 156.660843,430.007904 156.634064,430.763672 
	C156.576355,432.393829 156.171158,434.064545 155.619690,435.616119 
	C150.681229,449.510284 145.680130,463.382141 140.514023,477.586487 
z"/>
<path fill="#6625CA" opacity="1.000000" stroke="none" 
	d="
M407.770630,89.689407 
	C413.058716,80.622169 418.177490,71.879066 423.461334,62.853989 
	C424.632019,63.417732 425.726685,63.944881 427.140717,64.625809 
	C417.788086,80.593651 408.580414,96.383682 399.240479,112.095070 
	C398.650818,113.086990 397.029785,113.465797 395.888550,114.129829 
	C395.839844,112.830963 395.283478,111.249535 395.823883,110.278618 
	C399.623138,103.453140 403.648346,96.753448 407.770630,89.689407 
z"/>
<path fill="#6625CA" opacity="1.000000" stroke="none" 
	d="
M417.917480,116.001831 
	C415.887238,120.606171 414.098450,124.908318 412.020844,129.066147 
	C411.582672,129.943069 410.085938,130.291031 409.076965,130.882721 
	C408.859314,129.723053 408.092377,128.297714 408.505646,127.443192 
	C415.733185,112.499863 423.101501,97.624596 430.459076,82.744354 
	C430.749695,82.156616 431.124512,81.433342 431.654968,81.177933 
	C432.791443,80.630707 434.055603,80.348557 435.267456,79.957840 
	C435.166504,81.133827 435.422089,82.501678 434.908661,83.455681 
	C430.503784,91.640663 425.907379,99.722466 421.489075,107.900421 
	C420.150513,110.378075 419.189850,113.059906 417.917480,116.001831 
z"/>
<path fill="#6525C9" opacity="1.000000" stroke="none" 
	d="
M460.430389,221.619232 
	C462.750122,223.267883 464.919800,224.551392 466.755554,226.205505 
	C467.498444,226.874878 467.512512,228.353104 467.858276,229.463226 
	C466.800507,229.501114 465.459137,229.974625 464.733521,229.502258 
	C461.402954,227.334091 458.119202,225.054077 455.049347,222.533325 
	C447.741699,216.532791 440.648865,210.268814 433.288239,204.335815 
	C430.738983,202.280975 427.570435,201.011215 424.862274,199.127625 
	C423.903229,198.460587 423.471832,197.034927 422.799530,195.955612 
	C423.970428,195.786758 425.464478,195.070572 426.258881,195.539505 
	C430.804169,198.222672 435.427216,200.876801 439.564087,204.126205 
	C446.604523,209.656296 453.303589,215.620956 460.430389,221.619232 
z"/>
<path fill="#6425C7" opacity="1.000000" stroke="none" 
	d="
M36.968460,270.297668 
	C36.604942,272.515503 36.288338,274.310303 36.005547,276.110352 
	C34.502956,285.674896 37.669983,292.938782 46.193962,297.959045 
	C48.309216,299.204865 49.675900,301.721710 51.386681,303.654297 
	C47.679039,306.408752 46.166058,302.274384 43.894131,301.062012 
	C32.925816,295.209290 30.188927,285.511658 32.113632,274.002167 
	C32.823441,269.757568 33.890381,265.550171 35.146549,261.433228 
	C35.525593,260.190979 37.089195,259.310150 38.110191,258.263763 
	C38.398693,259.733704 39.080906,261.257629 38.888519,262.661682 
	C38.553627,265.105774 37.679211,267.475922 36.968460,270.297668 
z"/>
<path fill="#6425C7" opacity="1.000000" stroke="none" 
	d="
M78.095825,333.908813 
	C84.104599,338.598633 89.886673,343.005798 95.559647,347.549194 
	C96.390549,348.214630 96.702354,349.528259 97.254349,350.541962 
	C96.111900,350.741730 94.571411,351.519287 93.890015,351.049835 
	C88.453415,347.304291 82.972717,343.571259 77.903915,339.355377 
	C70.127953,332.887939 62.636635,326.075195 55.118359,319.304810 
	C54.173412,318.453857 53.796879,316.971680 53.156994,315.781982 
	C54.613750,315.880371 56.537979,315.412323 57.452793,316.167358 
	C64.358078,321.866425 71.065048,327.805786 78.095825,333.908813 
z"/>
<path fill="#6625CB" opacity="1.000000" stroke="none" 
	d="
M489.089996,254.177704 
	C492.971619,264.485596 490.440613,274.188293 487.941864,283.848480 
	C487.721405,284.700806 486.187897,285.213501 485.264282,285.883972 
	C484.904266,284.734924 484.103058,283.521759 484.259064,282.447632 
	C485.020691,277.205078 486.296600,272.029633 486.906189,266.774261 
	C487.908142,258.135986 484.462585,251.609604 476.783173,247.367172 
	C475.043610,246.406174 473.261292,245.415222 471.800171,244.102478 
	C471.058777,243.436371 470.988861,242.022903 470.615417,240.947311 
	C471.647064,240.864197 472.963257,240.328217 473.665405,240.769440 
	C479.386078,244.364365 485.771301,247.236389 489.089996,254.177704 
z"/>
<path fill="#6425C8" opacity="1.000000" stroke="none" 
	d="
M445.726318,173.254486 
	C447.628632,175.353577 449.423065,177.110077 450.805542,179.146301 
	C451.239868,179.786026 450.567200,181.177322 450.401215,182.224609 
	C449.417358,181.892349 448.239777,181.801758 447.478638,181.191650 
	C435.768829,171.805176 431.757843,157.729019 425.668701,144.941986 
	C425.138855,143.829346 425.973999,142.066681 426.175079,140.605972 
	C427.233154,141.586121 428.698334,142.370087 429.281006,143.579300 
	C432.305939,149.856598 434.846222,156.378616 438.080414,162.539749 
	C440.049408,166.290695 442.967529,169.543411 445.726318,173.254486 
z"/>
<path fill="#6425C8" opacity="1.000000" stroke="none" 
	d="
M76.316124,369.650269 
	C79.206383,373.890167 82.305992,377.651855 84.375443,381.913757 
	C87.417297,388.178223 89.850105,394.753906 92.235039,401.308807 
	C92.705276,402.601257 91.783264,404.400238 91.503326,405.965637 
	C90.510719,404.873322 89.140076,403.943451 88.589294,402.661316 
	C85.833237,396.245758 83.572525,389.604095 80.571129,383.312164 
	C78.743546,379.480865 75.966782,376.083954 73.466125,372.599792 
	C72.213432,370.854431 70.330704,369.515717 69.295990,367.676361 
	C68.659088,366.544128 69.085037,364.814026 69.033783,363.352356 
	C70.181747,363.985596 71.490265,364.440491 72.439209,365.294800 
	C73.786461,366.507690 74.869102,368.014496 76.316124,369.650269 
z"/>
<path fill="#6425C8" opacity="1.000000" stroke="none" 
	d="
M429.598602,129.233353 
	C431.027863,123.562294 432.938202,118.298401 433.424316,112.906113 
	C434.053772,105.923943 437.144440,100.313316 441.097290,94.950539 
	C441.614349,94.249077 442.913666,94.124222 443.850708,93.732300 
	C444.148865,94.738754 444.489288,95.735847 444.715485,96.758224 
	C444.772186,97.014587 444.530579,97.420395 444.310211,97.642540 
	C437.141968,104.868156 438.097656,114.811363 435.564453,123.591644 
	C434.602539,126.925652 433.423706,130.228714 431.964447,133.369659 
	C431.481262,134.409607 429.810364,134.897766 428.682556,135.638214 
	C428.631958,134.209686 428.486359,132.775177 428.575500,131.355408 
	C428.613586,130.748917 429.141266,130.173157 429.598602,129.233353 
z"/>
<path fill="#6425C6" opacity="1.000000" stroke="none" 
	d="
M476.211548,178.010590 
	C473.849670,173.201385 471.455353,168.835297 469.441467,164.300278 
	C468.935974,163.161911 469.651459,161.481323 469.805817,160.049927 
	C470.879242,160.844147 472.244537,161.430573 472.980896,162.464798 
	C480.098450,172.461945 482.222870,184.398468 485.621399,195.822861 
	C485.920654,196.828766 484.850800,198.241974 484.416809,199.466003 
	C483.491821,198.499039 482.092407,197.685669 481.721222,196.539337 
	C479.777283,190.536453 478.093903,184.449158 476.211548,178.010590 
z"/>
<path fill="#6525C9" opacity="1.000000" stroke="none" 
	d="
M37.857178,346.072845 
	C41.238483,358.053955 42.845734,370.190155 49.377472,380.734192 
	C49.936031,381.635864 49.213593,383.331024 49.086224,384.657593 
	C48.015907,383.955841 46.577274,383.496307 45.931984,382.515015 
	C39.115108,372.148529 37.326187,360.036682 34.364082,348.347198 
	C33.680099,345.648010 34.398159,343.825165 37.857178,346.072845 
z"/>
<path fill="#6425C7" opacity="1.000000" stroke="none" 
	d="
M41.182373,153.796936 
	C37.272747,150.406342 33.496994,147.385620 30.061693,144.017639 
	C29.054640,143.030319 29.014606,141.056656 28.531361,139.535065 
	C29.181068,139.191544 29.830776,138.848038 30.480484,138.504517 
	C40.225407,147.722092 49.999382,156.909500 59.658989,166.215622 
	C60.415154,166.944107 60.372860,168.501373 60.701664,169.673462 
	C59.413826,169.439362 57.718536,169.648209 56.904316,168.899246 
	C51.644421,164.060776 46.576832,159.013245 41.182373,153.796936 
z"/>
<path fill="#6525CA" opacity="1.000000" stroke="none" 
	d="
M91.245651,446.110107 
	C95.842873,436.871033 100.193741,427.918640 104.779411,419.088196 
	C105.431793,417.831879 107.223740,417.167358 108.488281,416.228943 
	C108.432030,417.711029 108.832321,419.409790 108.247978,420.641296 
	C103.136971,431.412781 97.850037,442.100830 92.589783,452.865845 
	C88.854355,450.532898 88.854355,450.532898 91.245651,446.110107 
z"/>
<path fill="#6625CA" opacity="1.000000" stroke="none" 
	d="
M476.935333,127.721375 
	C478.267181,128.340790 479.249420,129.031738 481.504547,130.618027 
	C474.549622,132.705399 468.985046,134.548950 463.322693,136.014481 
	C459.486359,137.007385 458.537933,134.458939 458.225647,131.214859 
	C457.800568,126.799339 459.418640,121.693954 454.175018,118.924232 
	C456.853210,115.681435 459.749969,116.004799 460.901520,119.867119 
	C462.011780,123.590912 462.205780,127.587891 462.915039,132.197296 
	C467.614136,130.683350 472.099945,129.238113 476.935333,127.721375 
z"/>
<path fill="#6626CC" opacity="1.000000" stroke="none" 
	d="
M20.654354,345.297791 
	C21.709929,350.919495 22.661234,356.131439 23.612539,361.343414 
	C23.193670,361.482574 22.774801,361.621765 22.355932,361.760925 
	C17.515356,347.409119 12.674778,333.057312 7.693615,318.288696 
	C13.789366,321.512207 17.362406,329.144043 20.654354,345.297791 
z"/>
<path fill="#6625CA" opacity="1.000000" stroke="none" 
	d="
M103.101257,462.561615 
	C102.637497,461.198822 101.910660,459.760742 102.352890,459.044739 
	C107.307259,451.023468 112.385544,443.076050 117.603973,435.224091 
	C118.207672,434.315674 119.859108,434.103638 121.024780,433.568726 
	C121.060448,434.737213 121.571709,436.200562 121.058327,437.028656 
	C115.829010,445.463135 110.445816,453.802582 105.045082,462.129364 
	C104.775497,462.545013 103.948555,462.599182 103.101257,462.561615 
z"/>
<path fill="#6625CA" opacity="1.000000" stroke="none" 
	d="
M80.112244,428.095825 
	C81.886276,422.847595 83.419510,417.939026 85.400139,413.218109 
	C85.863380,412.113922 87.842911,411.645874 89.124847,410.885132 
	C89.040329,412.322388 89.217361,413.835358 88.826683,415.183899 
	C86.987549,421.532043 84.945091,427.821045 83.075195,434.160645 
	C82.244705,436.976349 81.650406,439.861694 80.753868,443.508728 
	C75.555191,438.015228 80.120270,433.196533 80.112244,428.095825 
z"/>
<path fill="#6525C9" opacity="1.000000" stroke="none" 
	d="
M383.077820,162.849960 
	C381.071106,156.505447 379.140747,150.513550 377.493958,144.444687 
	C377.265778,143.603714 378.438538,142.382599 378.962708,141.337463 
	C379.748169,142.042938 380.974274,142.612259 381.241760,143.477829 
	C382.319458,146.964996 382.763184,150.675735 384.083527,154.052734 
	C385.509583,157.700180 387.729645,161.030136 389.442383,164.576324 
	C390.059937,165.854950 390.210388,167.359161 390.574005,168.760422 
	C389.254547,168.335281 387.675110,168.226639 386.678650,167.408234 
	C385.303406,166.278717 384.367889,164.613785 383.077820,162.849960 
z"/>
<path fill="#6525C9" opacity="1.000000" stroke="none" 
	d="
M139.625549,406.670685 
	C138.226959,405.496796 136.547348,404.259247 136.185898,402.713501 
	C134.497635,395.493530 134.074341,387.863800 128.309052,382.180389 
	C127.828232,381.706421 128.143646,380.424744 128.089127,379.518311 
	C129.116669,379.556000 130.385345,379.229340 131.117233,379.713715 
	C132.320541,380.510071 133.412750,381.695587 134.139023,382.955048 
	C138.326950,390.217377 140.427628,398.031952 139.625549,406.670685 
z"/>
<path fill="#6625CB" opacity="1.000000" stroke="none" 
	d="
M24.111984,205.822510 
	C25.116171,208.237473 26.820637,212.112823 26.597244,212.227310 
	C22.879650,214.132996 22.596123,210.106918 21.075020,208.439224 
	C17.515688,204.536911 14.200670,200.391861 11.040046,196.156097 
	C9.862399,194.577866 9.390382,192.473114 8.596608,190.608459 
	C9.219051,190.226303 9.841496,189.844147 10.463939,189.461990 
	C14.947691,194.818970 19.431442,200.175934 24.111984,205.822510 
z"/>
<path fill="#6525CA" opacity="1.000000" stroke="none" 
	d="
M370.970947,45.090599 
	C372.519287,42.333004 373.867920,39.879631 375.510101,37.641632 
	C375.889832,37.124123 377.486023,36.973988 378.125397,37.342907 
	C378.613556,37.624569 378.923584,39.403046 378.546661,39.815372 
	C373.815125,44.991665 373.787933,51.647202 372.465424,57.932690 
	C372.163116,59.369461 370.665497,60.554718 369.717987,61.855728 
	C369.322083,60.292484 368.435547,58.666656 368.625427,57.178139 
	C369.127197,53.244705 370.095428,49.370777 370.970947,45.090599 
z"/>
<path fill="#6425C7" opacity="1.000000" stroke="none" 
	d="
M459.902405,370.126251 
	C458.369812,373.033997 456.558868,373.281433 456.000885,370.210114 
	C454.784241,363.513458 454.036377,356.728210 453.257629,349.960663 
	C453.177429,349.263794 454.182617,348.442047 454.684143,347.678253 
	C455.524963,348.279602 456.906616,348.737244 457.111328,349.507629 
	C457.919556,352.548950 458.490417,355.671173 458.899780,358.796021 
	C459.375000,362.423645 459.588287,366.085541 459.902405,370.126251 
z"/>
<path fill="#6525CA" opacity="1.000000" stroke="none" 
	d="
M66.968033,175.576630 
	C68.146477,172.072403 70.300652,172.355911 70.726326,174.987122 
	C71.835434,181.842712 72.197906,188.823715 72.694420,195.766403 
	C72.742386,196.437103 71.648102,197.189484 71.084061,197.903946 
	C70.304329,197.208771 68.960022,196.600433 68.837578,195.804199 
	C68.107956,191.059311 67.619446,186.275162 67.139366,181.495224 
	C66.957245,179.681900 67.012726,177.844711 66.968033,175.576630 
z"/>
<path fill="#6425C8" opacity="1.000000" stroke="none" 
	d="
M14.184340,175.362747 
	C19.434790,178.382614 24.457542,181.572464 29.337400,184.967697 
	C30.208290,185.573624 30.487091,187.030533 31.039280,188.094513 
	C29.745798,188.168213 28.130133,188.776779 27.213604,188.224686 
	C22.821877,185.579239 18.520941,182.749557 14.437631,179.655548 
	C13.675190,179.077820 14.055117,176.992447 14.184340,175.362747 
z"/>
<path fill="#6425C8" opacity="1.000000" stroke="none" 
	d="
M478.033875,386.908325 
	C473.989410,383.916382 470.008789,380.604095 466.117493,377.190002 
	C465.842316,376.948608 465.997559,375.645111 466.353607,375.385529 
	C466.931244,374.964417 468.229797,374.594604 468.551117,374.903381 
	C472.080292,378.294769 475.486389,381.814880 478.869568,385.353943 
	C478.951538,385.439667 478.383972,386.146301 478.033875,386.908325 
z"/>
<path fill="#6525C9" opacity="1.000000" stroke="none" 
	d="
M53.900909,359.800110 
	C51.701714,357.554230 49.652817,355.596985 47.949181,353.375000 
	C47.310921,352.542572 47.476059,351.094177 47.274902,349.926605 
	C48.400341,350.107819 49.875069,349.902100 50.585304,350.543243 
	C52.663620,352.419373 54.632263,354.491241 56.276348,356.753510 
	C57.970932,359.085266 57.386612,360.521362 53.900909,359.800110 
z"/>
<path fill="#6224C4" opacity="1.000000" stroke="none" 
	d="
M470.399323,189.721970 
	C471.327026,190.702713 472.232117,191.335297 472.593628,192.196152 
	C472.913055,192.956818 472.972900,194.341156 472.512360,194.773026 
	C472.032135,195.223358 470.458679,195.245255 469.942047,194.793121 
	C467.583710,192.729065 465.323334,190.523819 463.274902,188.155548 
	C462.760742,187.561111 463.161743,186.175156 463.142120,185.152985 
	C464.056854,185.206345 465.229462,184.919586 465.836029,185.379425 
	C467.404053,186.568176 468.722351,188.086395 470.399323,189.721970 
z"/>
<path fill="#6A27D4" opacity="1.000000" stroke="none" 
	d="
M55.229904,415.523315 
	C53.811352,413.511963 52.547607,411.840057 51.257389,410.133148 
	C58.491371,407.353149 59.686897,408.810669 58.810066,418.962158 
	C57.709400,417.966248 56.547054,416.914520 55.229904,415.523315 
z"/>
</svg>
