<?xml version="1.0" standalone="no"?>
<!DOCTYPE svg PUBLIC "-//W3C//DTD SVG 20010904//EN"
 "http://www.w3.org/TR/2001/REC-SVG-20010904/DTD/svg10.dtd">
<svg version="1.0" xmlns="http://www.w3.org/2000/svg"
 width="512.000000pt" height="512.000000pt" viewBox="0 0 512.000000 512.000000"
 preserveAspectRatio="xMidYMid meet">

<g transform="translate(0.000000,512.000000) scale(0.100000,-0.100000)"
fill="#000000" stroke="none">
<path d="M2310 5109 c-490 -51 -975 -250 -1355 -556 -132 -106 -343 -324 -442
-458 -426 -572 -598 -1293 -472 -1985 146 -810 661 -1489 1402 -1851 574 -280
1221 -334 1841 -154 398 115 782 343 1080 640 206 205 360 421 491 690 190
388 277 784 262 1202 -22 646 -271 1238 -712 1692 -224 231 -433 385 -706 520
-293 146 -577 228 -908 261 -120 12 -359 11 -481 -1z"/>
</g>
</svg>
