<?xml version="1.0" standalone="no"?>
<!DOCTYPE svg PUBLIC "-//W3C//DTD SVG 20010904//EN"
 "http://www.w3.org/TR/2001/REC-SVG-20010904/DTD/svg10.dtd">
<svg version="1.0" xmlns="http://www.w3.org/2000/svg"
 width="512.000000pt" height="512.000000pt" viewBox="0 0 512.000000 512.000000"
 preserveAspectRatio="xMidYMid meet">

<g transform="translate(0.000000,512.000000) scale(0.100000,-0.100000)"
fill="#000000" stroke="none">
<path d="M3738 4743 c-27 -31 -39 -62 -54 -140 -10 -52 -11 -80 -4 -87 17 -17
27 4 44 89 8 44 25 92 36 108 30 40 10 66 -22 30z"/>
<path d="M3955 4690 c3 -5 11 -10 16 -10 6 0 7 5 4 10 -3 6 -11 10 -16 10 -6
0 -7 -4 -4 -10z"/>
<path d="M3982 4547 c-79 -191 -122 -507 -88 -651 31 -130 84 -212 261 -400
171 -182 369 -377 450 -445 135 -112 216 -189 230 -217 8 -16 28 -48 46 -70
43 -54 58 -86 70 -148 13 -72 -10 -231 -45 -310 -14 -32 -26 -63 -26 -68 0 -5
-25 -60 -54 -122 -36 -75 -61 -142 -72 -197 -9 -46 -25 -106 -35 -132 -26 -65
-26 -187 0 -242 10 -22 41 -65 69 -95 42 -46 51 -52 57 -37 5 12 -6 34 -40 75
-26 31 -52 68 -58 82 -15 37 -9 172 9 216 9 20 24 77 35 126 11 49 34 117 51
151 144 284 185 516 115 653 -14 27 -33 56 -42 64 -9 8 -27 34 -40 59 -22 45
-42 63 -290 279 -50 44 -194 187 -321 318 -245 255 -292 318 -329 448 -35 120
7 487 71 625 47 102 55 129 37 135 -8 3 -15 6 -16 6 -1 0 -21 -46 -45 -103z"/>
<path d="M3811 4566 c-77 -135 -146 -313 -191 -500 -30 -119 -30 -136 -5 -136
9 0 18 21 25 58 33 171 115 400 191 540 37 67 42 92 19 92 -5 0 -22 -24 -39
-54z"/>
<path d="M4083 4255 c-79 -134 -143 -249 -143 -255 0 -6 7 -10 16 -8 15 3 293
461 294 484 0 7 -6 14 -12 17 -8 3 -66 -86 -155 -238z"/>
<path d="M4273 4263 c-86 -142 -210 -420 -193 -437 15 -15 24 -2 78 124 60
141 103 226 153 306 44 70 46 74 21 74 -11 0 -33 -25 -59 -67z"/>
<path d="M4396 4173 c-3 -10 -17 -32 -30 -50 -16 -22 -29 -63 -41 -130 -10
-54 -26 -122 -37 -151 -13 -36 -17 -57 -10 -64 23 -23 60 70 87 221 11 61 22
93 45 124 16 22 30 47 30 54 0 19 -37 16 -44 -4z"/>
<path d="M4425 4001 c-3 -6 -4 -15 0 -20 3 -6 6 -91 6 -190 0 -148 3 -183 15
-196 30 -30 88 -15 269 67 127 58 127 59 116 77 -7 11 -36 2 -148 -49 -91 -42
-151 -64 -178 -64 l-40 -1 3 160 c2 88 -1 173 -6 189 -9 32 -26 44 -37 27z"/>
<path d="M3719 3912 c-9 -26 -29 -76 -45 -112 -26 -59 -28 -76 -28 -180 0 -95
3 -123 20 -161 28 -61 76 -113 148 -161 34 -23 88 -65 121 -93 33 -29 83 -64
110 -78 28 -14 70 -43 95 -64 25 -22 85 -66 134 -97 99 -64 288 -241 317 -298
20 -39 64 -214 74 -294 7 -55 -8 -147 -56 -350 l-32 -138 -54 -55 c-29 -31
-51 -61 -48 -69 6 -17 34 -2 78 42 55 55 69 96 132 389 22 102 19 196 -11 327
-15 63 -34 131 -42 150 -24 59 -215 244 -327 318 -55 36 -119 82 -142 103 -23
21 -68 51 -100 67 -32 17 -69 42 -83 57 -14 15 -69 59 -123 97 -142 101 -177
162 -177 309 0 83 18 155 56 226 26 49 33 113 12 113 -7 0 -20 -22 -29 -48z"/>
<path d="M4536 3952 c-3 -4 3 -15 13 -24 12 -10 20 -36 24 -77 4 -35 9 -67 13
-72 8 -14 35 -11 110 12 78 24 93 34 77 50 -8 8 -28 6 -74 -10 -88 -29 -89
-29 -89 27 0 26 -6 58 -13 72 -12 25 -50 39 -61 22z"/>
<path d="M374 3888 c-4 -7 0 -16 10 -22 134 -79 314 -241 382 -343 50 -75 98
-187 125 -293 25 -93 33 -110 50 -93 17 17 -35 192 -91 308 -75 155 -209 298
-389 414 -70 45 -76 47 -87 29z"/>
<path d="M282 3724 c-8 -14 13 -36 112 -124 66 -59 134 -122 150 -139 31 -33
56 -40 56 -17 0 14 -110 122 -237 234 -62 54 -73 60 -81 46z"/>
<path d="M3773 3709 c-12 -12 18 -141 44 -193 20 -40 53 -76 70 -76 18 0 16
25 -3 41 -24 20 -50 78 -69 157 -18 76 -25 88 -42 71z"/>
<path d="M4244 3696 c3 -13 33 -80 66 -150 48 -102 71 -138 114 -182 30 -30
60 -54 66 -54 24 0 7 35 -41 83 -34 34 -64 78 -86 127 -76 166 -95 200 -110
200 -11 0 -14 -6 -9 -24z"/>
<path d="M207 3566 c-4 -9 9 -25 34 -42 59 -40 222 -215 244 -260 23 -48 23
-153 -1 -216 -9 -24 -28 -86 -43 -138 -15 -52 -50 -140 -78 -195 -91 -180
-124 -262 -139 -352 -25 -142 -8 -244 52 -316 15 -18 35 -50 44 -73 12 -28 58
-78 146 -160 166 -154 332 -326 426 -439 41 -49 111 -130 155 -178 91 -101
155 -216 174 -315 15 -82 6 -214 -26 -356 -24 -111 -24 -126 -1 -126 16 0 64
222 72 335 12 168 -52 335 -185 479 -41 44 -116 131 -167 191 -85 102 -232
253 -456 470 -52 50 -106 114 -123 144 -16 29 -41 71 -53 93 -52 86 -37 260
35 422 24 54 66 142 93 195 27 53 56 127 65 165 8 38 25 90 36 115 14 30 23
76 26 133 5 75 3 92 -16 131 -27 56 -135 177 -222 251 -70 59 -83 65 -92 42z"/>
<path d="M4680 3515 c0 -8 17 -47 38 -87 21 -40 51 -121 67 -180 23 -86 33
-108 47 -108 10 0 18 3 18 6 0 32 -77 260 -107 314 -34 65 -63 90 -63 55z"/>
<path d="M1920 2662 c0 -456 -3 -944 -7 -1085 l-6 -257 253 0 253 0 -4 353 -4
352 150 0 150 0 -3 -300 c-2 -165 -5 -324 -9 -352 l-5 -53 253 0 254 0 2 928
c0 510 5 998 10 1085 l8 157 -259 0 -259 0 4 -377 4 -378 -149 -3 -149 -3 6
308 c4 170 10 341 14 381 l6 72 -257 0 -256 0 0 -828z"/>
<path d="M4937 3461 c-16 -78 64 -413 122 -511 24 -42 26 -43 29 -19 2 14 -7
47 -18 75 -23 52 -99 352 -101 394 0 14 -6 41 -13 60 l-13 34 -6 -33z"/>
<path d="M665 3390 c-8 -13 5 -187 16 -218 11 -27 35 -24 31 4 -1 10 -6 64
-10 118 -7 93 -19 125 -37 96z"/>
<path d="M130 3358 c0 -19 16 -34 71 -71 39 -26 77 -47 85 -47 31 0 10 30 -48
69 -35 23 -73 49 -85 57 -22 16 -23 15 -23 -8z"/>
<path d="M4620 3267 c0 -16 72 -87 88 -87 23 0 12 26 -26 63 -39 38 -62 47
-62 24z"/>
<path d="M1092 3218 c-10 -18 -43 -76 -72 -128 -77 -137 -115 -194 -187 -288
-54 -69 -62 -83 -47 -89 22 -8 60 35 148 167 69 104 206 343 206 360 0 22 -29
8 -48 -22z"/>
<path d="M87 3216 c-5 -13 10 -39 54 -94 33 -41 68 -86 76 -99 17 -26 43 -31
43 -7 0 16 -59 97 -127 173 -34 38 -41 42 -46 27z"/>
<path d="M4220 3166 c0 -8 24 -28 53 -44 28 -17 84 -58 122 -92 103 -92 245
-200 261 -200 28 0 13 27 -33 60 -25 18 -98 78 -162 133 -150 128 -241 182
-241 143z"/>
<path d="M56 3084 c-3 -8 -1 -24 4 -34 21 -39 12 -125 -20 -185 -17 -31 -30
-66 -30 -78 0 -19 1 -20 20 -2 11 10 33 45 50 78 37 74 41 154 10 205 -22 37
-26 38 -34 16z"/>
<path d="M702 3021 c-60 -44 -88 -102 -138 -283 -60 -218 -64 -284 -30 -458
17 -86 36 -149 51 -175 38 -64 234 -258 315 -313 41 -27 101 -73 133 -101 32
-28 73 -58 90 -67 18 -9 57 -40 87 -68 30 -28 85 -73 122 -100 122 -89 152
-154 146 -310 -3 -97 -6 -107 -46 -190 -41 -82 -51 -135 -27 -138 6 0 15 15
21 33 5 19 27 69 48 111 34 69 38 88 43 175 9 162 -32 254 -149 339 -29 21
-80 63 -113 94 -33 32 -80 67 -104 80 -25 12 -67 43 -95 69 -28 26 -87 72
-131 102 -93 64 -287 257 -315 314 -10 22 -28 92 -40 155 -30 159 -25 243 29
440 49 176 72 224 131 265 38 27 47 44 24 52 -6 2 -29 -10 -52 -26z"/>
<path d="M318 2908 c-25 -40 -81 -130 -126 -199 -116 -180 -182 -312 -182
-363 1 -39 5 -33 78 109 43 83 123 220 179 305 131 203 140 220 110 220 -8 0
-34 -33 -59 -72z"/>
<path d="M4150 2888 c0 -7 67 -78 150 -158 126 -122 154 -155 180 -210 37 -81
41 -161 9 -246 -15 -39 -18 -59 -11 -66 7 -7 17 -1 31 22 50 83 52 210 6 308
-21 44 -61 91 -183 210 -144 142 -182 171 -182 140z"/>
<path d="M4697 2723 c-13 -13 -6 -20 59 -64 82 -55 104 -94 104 -181 0 -35 -7
-92 -15 -127 -11 -44 -12 -68 -5 -75 17 -17 28 5 46 93 32 161 7 238 -101 314
-71 49 -77 51 -88 40z"/>
<path d="M693 2543 c-53 -114 -39 -229 40 -349 40 -61 275 -304 293 -304 34 0
6 40 -108 153 -122 122 -187 208 -209 274 -17 53 -7 169 20 221 21 41 21 62 0
62 -6 0 -22 -25 -36 -57z"/>
<path d="M351 2532 c-37 -70 -52 -237 -26 -299 20 -48 38 -67 107 -114 46 -31
58 -36 67 -25 9 11 -2 23 -54 60 -36 26 -72 61 -81 78 -22 42 -21 127 1 222
13 54 15 80 8 87 -8 8 -14 5 -22 -9z"/>
<path d="M5081 2282 c-13 -26 -70 -127 -128 -225 -112 -190 -124 -217 -101
-217 9 0 63 81 128 191 86 145 115 204 121 242 5 28 7 52 6 54 -2 1 -14 -19
-26 -45z"/>
<path d="M4381 2045 c-90 -119 -289 -484 -276 -505 14 -22 27 -4 94 128 83
163 138 256 199 337 25 32 45 66 46 73 2 33 -24 19 -63 -33z"/>
<path d="M520 1967 c0 -8 19 -28 43 -45 23 -17 98 -82 166 -146 69 -63 146
-127 173 -141 44 -24 49 -25 55 -9 4 10 2 19 -5 22 -28 9 -101 66 -190 148
-174 162 -242 209 -242 171z"/>
<path d="M80 1932 c0 -6 13 -46 29 -89 16 -43 32 -94 36 -113 9 -45 66 -193
71 -187 9 9 -49 255 -73 309 -24 54 -63 104 -63 80z"/>
<path d="M4974 1809 c-3 -6 1 -18 10 -27 15 -15 16 -14 16 11 0 27 -13 36 -26
16z"/>
<path d="M336 1672 c-10 -16 62 -267 95 -330 17 -34 36 -62 41 -62 21 0 17 33
-13 91 -18 35 -46 118 -63 183 -28 109 -45 142 -60 118z"/>
<path d="M4290 1647 c0 -32 65 -208 108 -291 35 -67 67 -112 135 -182 49 -52
95 -94 103 -94 33 0 20 25 -47 87 -114 108 -176 211 -234 387 -22 67 -38 102
-49 104 -9 2 -16 -3 -16 -11z"/>
<path d="M4528 1645 c-3 -4 -2 -23 2 -43 5 -20 12 -72 15 -114 5 -55 11 -78
21 -78 7 0 15 3 17 8 6 8 -8 157 -18 203 -6 26 -23 37 -37 24z"/>
<path d="M464 1626 c-5 -12 5 -29 32 -57 38 -39 64 -50 64 -26 0 7 -20 33 -45
57 -38 37 -45 41 -51 26z"/>
<path d="M677 1494 c-13 -13 -7 -23 46 -83 44 -49 63 -83 109 -197 30 -76 60
-140 67 -142 26 -9 20 31 -19 124 -67 163 -77 181 -131 241 -57 63 -62 67 -72
57z"/>
<path d="M4650 1366 c0 -14 95 -106 110 -106 4 0 10 7 13 15 4 9 -13 31 -47
60 -55 47 -76 55 -76 31z"/>
<path d="M1270 1326 c0 -8 5 -18 10 -21 20 -12 49 -82 64 -154 8 -41 19 -78
24 -83 49 -49 8 169 -45 240 -25 33 -53 43 -53 18z"/>
<path d="M530 1183 c-52 -19 -97 -37 -99 -39 -2 -2 1 -10 8 -18 10 -12 24 -9
94 19 92 37 152 51 160 38 3 -5 1 -84 -4 -176 -10 -163 -4 -214 21 -205 13 5
21 390 8 405 -18 22 -90 13 -188 -24z"/>
<path d="M510 1033 c0 -4 16 -26 35 -48 l35 -40 -2 45 c-3 43 -5 45 -35 48
-18 2 -33 0 -33 -5z"/>
<path d="M844 995 c-35 -54 -81 -250 -63 -272 7 -7 14 -12 16 -9 2 2 17 56 33
121 16 64 36 127 44 141 9 13 16 28 16 34 0 19 -30 10 -46 -15z"/>
<path d="M971 801 c-75 -153 -88 -191 -61 -191 10 0 170 324 170 345 0 46 -35
-3 -109 -154z"/>
<path d="M1527 843 c-3 -4 -17 -53 -32 -108 -33 -122 -86 -268 -131 -357 -29
-57 -31 -67 -17 -72 19 -8 14 -13 50 59 49 98 100 234 132 353 24 91 27 113
16 122 -7 6 -15 7 -18 3z"/>
<path d="M1095 664 c-63 -99 -84 -139 -76 -147 15 -15 23 -6 115 140 70 109
83 143 57 143 -5 0 -48 -61 -96 -136z"/>
</g>
</svg>
