<svg version="1.1" id="Layer_1" xmlns="http://www.w3.org/2000/svg" xmlns:xlink="http://www.w3.org/1999/xlink" x="0px" y="0px"
	 width="100%" viewBox="0 0 512 512" enable-background="new 0 0 512 512" xml:space="preserve">
<path fill="none" opacity="1.000000" stroke="none" 
	d="
M225.000000,1.000000 
	C246.020889,1.000000 267.041779,1.000000 288.229706,1.364761 
	C289.065948,2.147056 289.706238,2.870809 290.408691,2.937214 
	C306.859680,4.492404 322.734924,8.673177 338.340851,13.820735 
	C361.876190,21.583803 383.750488,32.761715 403.866760,47.223320 
	C395.012726,63.809841 391.636841,81.578056 389.240997,99.595978 
	C386.765472,118.213043 390.600067,135.686935 403.306213,149.451141 
	C426.532898,174.611862 449.846222,199.738342 476.514038,221.534912 
	C483.591675,227.319717 488.136902,236.221375 493.740295,243.769577 
	C494.492462,244.782776 494.705017,246.233688 495.037170,247.515656 
	C497.585419,257.350800 496.592957,267.291107 493.578064,276.583893 
	C487.554474,295.150604 476.474884,311.913330 473.636566,331.676086 
	C473.545441,332.310608 473.054199,332.876953 472.860077,333.509033 
	C469.144440,345.606720 468.871826,357.136932 478.519897,366.967102 
	C480.612091,369.098755 482.791748,371.144531 484.944000,373.591492 
	C483.023193,377.632202 481.089508,381.311249 479.011780,384.680054 
	C476.029053,381.614807 473.285889,378.748840 470.293243,376.172577 
	C469.399719,375.403381 467.808105,375.445007 466.536346,375.115143 
	C466.806824,376.382843 466.659943,378.046570 467.421082,378.848694 
	C470.479828,382.072235 473.819550,385.029144 477.027893,388.447693 
	C473.963531,393.422089 470.926697,398.033356 467.543488,402.535156 
	C460.878113,395.857666 453.156036,390.131500 448.585846,382.514282 
	C442.508453,372.384857 438.932220,360.762054 434.147491,349.839539 
	C433.608856,348.609985 432.203583,347.760071 431.200195,346.734070 
	C430.908478,348.184875 430.076599,349.773071 430.405518,351.066040 
	C436.016174,373.123291 446.361664,392.247253 465.018219,406.461609 
	C463.131866,409.251373 461.186096,411.627289 459.410034,414.123932 
	C448.346649,429.676147 434.789001,442.968811 420.204620,455.007202 
	C403.059387,469.159515 384.294342,480.966461 363.851593,490.119690 
	C340.497284,500.576630 316.393951,508.006165 290.965668,511.076416 
	C290.243561,511.163605 289.652283,512.334473 289.000000,513.000000 
	C267.979095,513.000000 246.958206,513.000000 225.770264,512.635254 
	C225.102325,511.860565 224.655930,511.199646 224.092651,511.077423 
	C208.272522,507.644623 192.118439,505.311859 176.707626,500.563934 
	C163.213379,496.406464 150.552002,489.545715 137.620163,483.522217 
	C146.139877,467.222046 152.367798,450.464813 156.173340,432.838196 
	C156.463135,431.495911 155.691177,429.924438 155.412750,428.459503 
	C154.381439,429.471100 152.682953,430.333801 152.418915,431.516663 
	C148.490005,449.117523 142.072479,465.783813 133.603790,481.807129 
	C129.153625,479.218323 125.056519,476.659424 121.249802,473.843445 
	C123.196243,465.957367 124.906212,458.339630 126.497925,450.697235 
	C130.728394,430.385284 126.561989,411.984406 113.349098,395.934906 
	C105.630142,386.558807 97.654762,377.368927 89.379227,368.482178 
	C78.498497,356.797913 67.895508,344.705475 55.892834,334.259644 
	C44.933361,324.721710 36.064030,313.948792 28.903553,301.540894 
	C27.928305,299.850922 27.390097,297.849274 26.943161,295.923828 
	C24.596001,285.811920 26.452063,275.878601 29.938595,266.558014 
	C36.605789,248.734528 48.030678,232.830170 51.462658,213.650711 
	C51.660393,212.545685 52.581051,211.587952 52.909050,210.485443 
	C55.611969,201.400238 57.662228,192.060593 52.103325,183.498398 
	C44.334003,171.531586 34.292439,161.629730 22.193081,153.607040 
	C24.152328,149.765381 26.081488,146.279938 28.328442,142.922241 
	C37.834194,151.479172 46.989300,159.944885 56.256313,168.286255 
	C57.286301,169.213364 58.953770,169.432251 60.325596,169.979584 
	C59.890896,168.471436 59.931004,166.458969 58.947861,165.533356 
	C49.394676,156.539047 39.670124,147.726776 30.000307,138.494293 
	C32.334526,134.027725 34.662872,129.929489 37.325623,125.942596 
	C57.393299,137.590286 74.787933,151.548645 84.121078,173.198227 
	C87.261192,180.482178 89.045418,188.343811 91.638733,195.876205 
	C92.148659,197.357285 93.529190,198.538605 94.508194,199.858185 
	C94.835152,198.130188 95.656151,196.320465 95.386559,194.691162 
	C94.818970,191.260925 93.719391,187.914032 92.768593,184.552612 
	C84.568230,155.561264 64.831841,136.519012 39.169228,122.200272 
	C45.501392,112.974426 51.744137,103.960518 58.342655,95.215027 
	C71.102280,78.303787 86.571693,64.004417 103.425682,51.400009 
	C117.933716,40.550041 133.537430,31.337734 150.198593,23.859795 
	C173.533447,13.386537 197.630188,6.005539 223.036972,2.923610 
	C223.758484,2.836090 224.348618,1.665548 225.000000,1.000000 
M192.079773,353.500702 
	C192.079773,362.571320 192.079773,371.641968 192.079773,380.715607 
	C208.904175,380.715607 225.317780,380.715607 242.030396,380.715607 
	C242.030396,357.369080 242.030396,334.305115 242.030396,311.086365 
	C251.884842,311.086365 261.434540,311.086365 270.746857,311.086365 
	C270.746857,334.489258 270.746857,357.540344 270.746857,380.735229 
	C287.217590,380.735229 303.788300,380.735229 321.432617,380.735229 
	C321.432617,308.333466 321.432617,236.192795 321.432617,164.000641 
	C305.236328,164.000641 288.471039,164.000641 271.186890,164.000641 
	C271.186890,189.127960 271.186890,213.990692 271.186890,239.021454 
	C261.248108,239.021454 251.831345,239.021454 241.549469,239.021454 
	C242.324509,213.899368 243.091309,189.043854 243.863815,164.004059 
	C226.755081,164.004059 210.022964,164.004059 192.142532,164.004059 
	C192.142532,227.017303 192.142532,289.760284 192.079773,353.500702 
M461.176147,240.397507 
	C451.178802,231.405014 441.586975,221.900024 431.062744,213.573517 
	C421.741180,206.198547 411.381531,200.135803 401.484406,193.487488 
	C400.932739,193.116898 400.413971,192.696213 399.889343,192.286697 
	C394.131683,187.792313 388.456024,183.187866 382.599030,178.826965 
	C375.489502,173.533447 370.315063,167.021469 369.370056,157.968628 
	C368.334137,148.044449 369.231079,138.407196 374.153442,129.368927 
	C375.782288,126.378075 376.610718,122.912155 377.479645,119.578613 
	C377.659576,118.888336 376.396332,117.821854 375.798248,116.928764 
	C375.002258,117.587730 373.830383,118.088264 373.474396,118.932716 
	C371.816986,122.864288 370.501556,126.939735 368.852142,130.874985 
	C362.641174,145.693497 361.907074,168.764496 378.124481,180.560776 
	C392.725647,191.181412 406.863922,202.507065 421.985321,212.321594 
	C433.565430,219.837631 444.008881,228.364655 453.358765,238.371140 
	C455.833893,241.020111 458.955231,243.605774 460.138123,246.823944 
	C464.267853,258.059235 468.220306,269.677765 467.008240,281.752258 
	C465.884888,292.943176 462.793823,303.927734 460.776917,315.040833 
	C459.405579,322.596588 456.155396,328.808960 449.700348,333.258240 
	C448.785370,333.888947 448.609192,335.591522 448.091064,336.797974 
	C449.392944,336.718079 450.984955,337.095825 451.949677,336.484161 
	C458.282928,332.468750 462.250031,326.652710 464.000793,319.382507 
	C465.558014,312.916107 466.547150,306.281647 468.533905,299.955963 
	C474.064301,282.347717 470.500153,265.395599 465.401581,248.523712 
	C464.598694,245.866867 462.901154,243.480392 461.176147,240.397507 
M68.991745,212.454071 
	C66.260536,216.932388 62.753803,221.125290 60.976337,225.954636 
	C58.174145,233.568192 56.751499,241.676392 54.357193,249.455872 
	C49.198349,266.217773 53.041977,282.380524 57.312229,298.516602 
	C57.890968,300.703522 59.044422,302.976135 60.557995,304.639069 
	C69.947182,314.954742 78.725906,325.849060 90.563232,333.738739 
	C100.054153,340.064514 109.208565,346.925964 118.234390,353.908936 
	C125.189041,359.289490 131.698486,365.244019 138.430679,370.913910 
	C145.606323,376.957336 149.194946,384.501160 149.198486,394.026123 
	C149.202026,403.587280 147.456848,412.464020 142.307571,420.678406 
	C140.780167,423.114960 140.187897,426.204102 139.540909,429.078400 
	C139.383575,429.777313 140.704895,430.809113 141.346313,431.687866 
	C142.090530,430.955597 143.123871,430.355225 143.528641,429.468079 
	C145.231140,425.736572 146.480621,421.780640 148.375961,418.157959 
	C155.941742,403.697083 155.443863,382.809692 145.561310,372.485138 
	C137.224197,363.775116 127.555481,356.265900 118.046402,348.770386 
	C106.471863,339.646881 94.124306,331.487885 82.740524,322.144806 
	C76.101440,316.695892 70.611748,309.821564 64.785904,303.423737 
	C63.260937,301.749023 61.812229,299.585968 61.355499,297.429657 
	C59.329498,287.864502 55.988781,278.160156 56.328045,268.620117 
	C56.728657,257.354919 60.431015,246.207748 62.695030,235.008011 
	C64.583061,225.668167 67.385033,216.908463 76.541649,211.869461 
	C77.180946,211.517670 77.173515,209.990677 77.466827,209.010162 
	C76.445312,208.848099 75.206650,208.241638 74.445961,208.613342 
	C72.677124,209.477676 71.138710,210.813599 68.991745,212.454071 
M448.218811,291.846191 
	C451.465942,294.331482 451.924194,291.018677 452.650909,289.423859 
	C459.124023,275.218018 457.020142,261.939606 446.782806,250.501923 
	C439.039551,241.850754 430.344086,234.038803 421.876190,226.061630 
	C420.383362,224.655289 417.923920,224.274994 415.910858,223.420868 
	C416.960846,225.288757 417.658752,227.510071 419.119659,228.965485 
	C426.890594,236.707001 435.191162,243.940781 442.665771,251.950027 
	C452.713409,262.716339 455.120117,275.112030 448.455872,288.737457 
	C448.109802,289.445007 448.123779,290.328705 448.218811,291.846191 
M102.893974,318.596802 
	C96.460785,312.080200 89.893265,305.689819 83.623596,299.019501 
	C72.151901,286.814758 66.268486,273.384521 75.090698,256.954193 
	C75.579323,256.044189 74.827965,254.468338 74.653763,253.202423 
	C73.557526,253.939026 72.040108,254.424759 71.429169,255.450424 
	C64.047096,267.843903 65.155968,282.908691 75.482903,295.432068 
	C83.193336,304.782440 92.025246,313.215668 100.503784,321.915039 
	C101.523689,322.961487 103.458122,323.116638 104.968666,323.684937 
	C104.435234,322.163513 103.901802,320.642059 102.893974,318.596802 
M370.573059,93.154922 
	C375.504974,81.562935 380.419159,69.963341 385.390289,58.388176 
	C386.042694,56.869034 387.165405,55.539143 387.718567,53.995552 
	C387.987213,53.245808 387.442596,52.204636 387.266144,51.295403 
	C386.266205,51.570694 385.093231,51.612652 384.316376,52.188759 
	C383.580566,52.734402 383.252716,53.835926 382.758331,54.700359 
	C371.845764,73.780922 364.696411,94.227417 360.777405,115.812202 
	C360.511993,117.274277 361.424591,118.950233 361.789307,120.526726 
	C362.777161,119.231041 364.274994,118.072754 364.667236,116.616623 
	C366.695709,109.086723 368.441376,101.480637 370.573059,93.154922 
M419.014923,350.580750 
	C427.615936,336.250824 436.246552,321.938446 444.754089,307.553253 
	C445.346558,306.551514 445.025818,305.009674 445.129761,303.719055 
	C443.912811,304.175903 442.200195,304.270569 441.558960,305.148102 
	C437.257568,311.034790 432.757019,316.842316 429.132751,323.142426 
	C423.100220,333.628937 417.619995,344.436646 412.082031,355.199097 
	C411.505219,356.320068 412.106995,358.047516 412.161987,359.493561 
	C413.352234,358.661560 414.857819,358.056976 415.659790,356.945007 
	C416.904907,355.218597 417.670959,353.146667 419.014923,350.580750 
M106.003029,206.536530 
	C108.693398,201.759827 111.500587,197.042709 113.989441,192.163223 
	C114.588341,190.989059 114.131569,189.276413 114.160286,187.811417 
	C112.945274,188.590927 111.267876,189.089355 110.594017,190.197830 
	C107.403625,195.445953 104.768417,201.044342 101.414848,206.177856 
	C94.428703,216.871948 87.075691,227.325882 79.991623,237.957275 
	C79.247971,239.073303 79.294952,240.716171 78.975113,242.114594 
	C80.324150,241.588058 81.813271,241.267654 82.980850,240.474121 
	C84.042480,239.752640 84.871681,238.594742 85.602539,237.495682 
	C92.311180,227.407516 98.976044,217.290237 106.003029,206.536530 
M53.798950,318.368591 
	C61.445881,325.013763 68.977325,331.798431 76.779144,338.256531 
	C82.250168,342.785217 88.041702,346.936096 93.828072,351.062225 
	C94.525536,351.559601 96.086151,350.846527 97.246719,350.694458 
	C96.759880,349.658661 96.541710,348.298492 95.744102,347.637909 
	C88.736710,341.834320 81.586746,336.203217 74.558266,330.424652 
	C68.785667,325.678589 63.209190,320.689850 57.353004,316.052124 
	C55.676254,314.724274 52.717354,312.868835 53.798950,318.368591 
M458.512573,220.029755 
	C453.320221,215.630630 448.291870,211.016602 442.889221,206.893005 
	C437.513702,202.790115 431.810394,199.104797 426.114594,195.448547 
	C425.401703,194.990936 423.857758,195.828003 422.698883,196.065170 
	C423.260468,197.065933 423.581757,198.388123 424.421936,199.016159 
	C430.635101,203.660583 437.044586,208.044922 443.211060,212.748688 
	C450.200500,218.080185 456.951294,223.724686 463.946198,229.048691 
	C464.839569,229.728638 466.578125,229.298172 467.925110,229.382141 
	C467.379089,228.185944 467.129395,226.653259 466.228516,225.859970 
	C463.994415,223.892578 461.462830,222.262970 458.512573,220.029755 
M44.190350,296.339752 
	C37.677013,292.360229 34.947979,286.427490 35.914635,279.019287 
	C36.661858,273.292725 38.128895,267.662933 39.043846,261.952942 
	C39.230518,260.787964 38.382763,259.457245 38.011856,258.202911 
	C37.050850,259.119354 35.586891,259.870941 35.222313,260.982910 
	C34.088989,264.439697 33.250698,268.008087 32.515759,271.578003 
	C29.310825,287.145813 33.802837,296.594666 47.956177,303.928772 
	C48.832798,304.383057 50.224895,303.842590 51.377159,303.764893 
	C51.062767,302.782532 51.039928,301.474396 50.377174,300.881287 
	C48.656803,299.341705 46.655014,298.116577 44.190350,296.339752 
M491.022308,262.752319 
	C491.014923,250.762375 482.194580,245.699402 473.481659,240.634796 
	C472.801758,240.239578 471.498596,240.916519 470.485107,241.095139 
	C470.811768,242.062805 470.848907,243.391144 471.519928,243.929810 
	C473.450714,245.479660 475.580902,246.809052 477.734406,248.048416 
	C484.484528,251.933197 487.610870,257.815918 486.901550,265.459045 
	C486.397949,270.885437 485.136536,276.238007 484.459167,281.654236 
	C484.286713,283.033051 485.049622,284.528870 485.382751,285.970886 
	C486.357880,284.920013 487.985962,283.986359 488.199066,282.798767 
	C489.336975,276.458069 490.121216,270.053894 491.022308,262.752319 
M380.024536,155.390747 
	C382.101501,159.322403 383.996399,163.369934 386.376129,167.108871 
	C387.016693,168.115356 389.130676,168.184006 390.568329,168.683167 
	C390.198730,167.279343 390.037903,165.774963 389.419556,164.490952 
	C387.709198,160.939407 385.494934,157.601593 384.073669,153.948273 
	C382.757935,150.566315 382.321503,146.851227 381.243958,143.361237 
	C380.981110,142.509964 379.723785,141.965714 378.923737,141.280304 
	C378.398193,142.333984 377.292023,143.486130 377.451019,144.423706 
	C378.033020,147.855820 379.036255,151.216492 380.024536,155.390747 
M137.758072,406.716339 
	C138.679138,405.679565 140.519470,404.482208 140.370987,403.632324 
	C139.458542,398.410034 138.476639,393.134216 136.742310,388.145844 
	C135.695236,385.134247 133.381134,382.502441 131.330994,379.944733 
	C130.841644,379.334229 129.132584,379.701447 127.984512,379.618958 
	C128.183807,380.639496 128.214905,381.731018 128.610458,382.668762 
	C130.703262,387.630157 133.044495,392.492493 134.978348,397.512909 
	C136.041458,400.272827 136.472244,403.276245 137.758072,406.716339 
M370.868164,45.468613 
	C370.109497,49.210598 369.140564,52.927460 368.689087,56.706158 
	C368.490967,58.364288 369.348022,60.148491 369.725952,61.875450 
	C370.719025,60.416321 372.066406,59.083813 372.641205,57.475231 
	C374.676086,51.780338 376.469910,45.998367 378.292236,40.229542 
	C378.557526,39.389698 378.480530,38.441742 378.561920,37.543812 
	C377.513916,37.547192 375.902069,37.120895 375.515472,37.628262 
	C373.831879,39.837646 372.504822,42.318668 370.868164,45.468613 
M458.767578,356.860321 
	C458.210236,354.275055 457.775940,351.652618 457.013641,349.129242 
	C456.809357,348.453064 455.604858,348.079010 454.859589,347.566254 
	C454.302246,348.438324 453.187408,349.371857 453.275726,350.172729 
	C453.981995,356.578033 454.821472,362.973816 455.871552,369.330994 
	C456.050079,370.411652 457.431396,371.293610 458.257080,372.267365 
	C458.792358,371.053040 459.802795,369.827362 459.774078,368.626495 
	C459.687103,364.991730 459.197327,361.366577 458.767578,356.860321 
M72.396469,193.633087 
	C71.945084,188.037109 71.615005,182.426712 70.952911,176.855774 
	C70.796806,175.542297 69.522331,174.361725 68.762337,173.120010 
	C68.165283,174.277023 67.012001,175.459641 67.063866,176.586807 
	C67.344398,182.683853 67.807434,188.780502 68.504555,194.843140 
	C68.632217,195.953445 70.130173,196.906158 70.995621,197.931625 
	C71.549606,196.763931 72.103600,195.596222 72.396469,193.633087 
z"/>
<path fill="none" opacity="1.000000" stroke="none" 
	d="
M479.155853,384.990295 
	C481.089508,381.311249 483.023193,377.632202 485.236084,373.422607 
	C485.983429,371.718445 486.451599,370.544891 487.236694,369.159851 
	C490.582703,362.239471 494.211700,355.722900 496.444153,348.758575 
	C498.120087,343.530396 503.105225,338.556763 499.729645,333.426880 
	C501.428345,330.849579 503.017822,329.044312 503.893890,326.941742 
	C504.806000,324.752777 505.101318,322.290222 505.541473,319.924072 
	C507.335785,310.278259 509.082245,300.623566 510.940033,290.591370 
	C511.689148,289.807098 512.344604,289.403564 513.000000,289.000000 
	C513.000000,363.593719 513.000000,438.187408 513.000000,513.000000 
	C438.645905,513.000000 364.291626,513.000000 289.468689,513.000000 
	C289.652283,512.334473 290.243561,511.163605 290.965668,511.076416 
	C316.393951,508.006165 340.497284,500.576630 363.851593,490.119690 
	C384.294342,480.966461 403.059387,469.159515 420.204620,455.007202 
	C434.789001,442.968811 448.346649,429.676147 459.410034,414.123932 
	C461.186096,411.627289 463.131866,409.251373 465.303162,406.332397 
	C466.368042,404.778290 467.128967,403.711487 467.889893,402.644653 
	C470.926697,398.033356 473.963531,393.422089 477.314880,388.296783 
	C478.138214,386.851959 478.647034,385.921112 479.155853,384.990295 
z"/>
<path fill="none" opacity="1.000000" stroke="none" 
	d="
M137.522720,483.879089 
	C150.552002,489.545715 163.213379,496.406464 176.707626,500.563934 
	C192.118439,505.311859 208.272522,507.644623 224.092651,511.077423 
	C224.655930,511.199646 225.102325,511.860565 225.301605,512.635254 
	C150.406296,513.000000 75.812599,513.000000 1.000000,513.000000 
	C1.000000,438.645905 1.000000,364.291626 1.364943,289.167664 
	C2.485443,291.924072 3.230419,295.452423 3.998873,298.975647 
	C5.379570,305.305969 6.774364,311.633179 8.105766,318.358917 
	C9.699696,324.473358 11.041369,330.303467 13.074467,335.881592 
	C16.198164,344.451935 19.796970,352.849060 23.207153,361.351440 
	C23.220133,361.383209 23.227423,361.451385 23.153078,361.770752 
	C23.341503,362.402893 23.604273,362.715668 23.929874,363.408752 
	C27.875443,371.256134 31.619513,378.799957 35.692909,386.161530 
	C38.135357,390.575623 41.092285,394.705048 43.909721,399.288544 
	C44.661800,400.450500 45.322121,401.286316 45.990692,402.477783 
	C47.703529,405.038147 49.408115,407.242859 51.058910,409.765076 
	C53.621979,413.398376 56.238842,416.714111 58.988762,420.345215 
	C62.414299,424.160004 65.706779,427.659485 69.086952,431.449646 
	C70.097656,432.521851 71.020653,433.303314 72.057129,434.399841 
	C73.812721,436.270844 75.454849,437.826782 77.194458,439.651184 
	C78.465767,440.944580 79.639580,441.969513 80.953308,443.307922 
	C83.695488,445.761383 86.297745,447.901337 89.027664,450.325989 
	C90.074013,451.428894 90.992706,452.247192 92.039604,453.389008 
	C95.122055,455.883942 98.076302,458.055359 101.138771,460.517700 
	C102.438950,461.540344 103.630905,462.272064 104.969467,463.327637 
	C109.348457,466.420990 113.580856,469.190582 117.965408,472.262939 
	C119.064842,473.077271 120.012123,473.588898 120.959412,474.100525 
	C125.056519,476.659424 129.153625,479.218323 133.896774,481.919891 
	C135.536102,482.668091 136.529419,483.273590 137.522720,483.879089 
z"/>
<path fill="none" opacity="1.000000" stroke="none" 
	d="
M224.531342,1.000000 
	C224.348618,1.665548 223.758484,2.836090 223.036972,2.923610 
	C197.630188,6.005539 173.533447,13.386537 150.198593,23.859795 
	C133.537430,31.337734 117.933716,40.550041 103.425682,51.400009 
	C86.571693,64.004417 71.102280,78.303787 58.342655,95.215027 
	C51.744137,103.960518 45.501392,112.974426 38.875488,122.407623 
	C38.099121,123.909203 37.545170,124.870216 36.991219,125.831238 
	C34.662872,129.929489 32.334526,134.027725 29.705460,138.656158 
	C28.940042,140.389069 28.475348,141.591797 28.010651,142.794510 
	C26.081488,146.279938 24.152328,149.765381 22.056465,153.928497 
	C21.589743,155.680786 21.289726,156.755371 20.649729,157.998840 
	C18.261600,163.731262 16.213455,169.294846 14.051025,175.191742 
	C13.660003,176.778641 13.383263,178.032181 12.849276,179.615540 
	C11.738432,183.236679 10.884835,186.528000 9.707465,190.020523 
	C9.224185,191.466843 9.064677,192.711975 8.551119,194.125214 
	C7.776358,196.835815 7.355647,199.378311 6.610386,202.126953 
	C6.165955,203.862076 6.046075,205.391083 5.558902,207.107758 
	C4.445382,212.881332 3.736467,218.473007 2.875820,224.041245 
	C2.812987,224.447754 1.650978,224.684387 1.000001,225.000000 
	C1.000000,150.406296 1.000000,75.812576 1.000000,1.000000 
	C75.354088,1.000000 149.708389,1.000000 224.531342,1.000000 
z"/>
<path fill="none" opacity="1.000000" stroke="none" 
	d="
M404.084747,46.938583 
	C383.750488,32.761715 361.876190,21.583803 338.340851,13.820735 
	C322.734924,8.673177 306.859680,4.492404 290.408691,2.937214 
	C289.706238,2.870809 289.065948,2.147056 288.698364,1.364761 
	C363.593719,1.000000 438.187408,1.000000 513.000000,1.000000 
	C513.000000,75.354088 513.000000,149.708389 512.737793,224.811371 
	C511.923462,224.809143 511.371368,224.058228 510.883301,222.866425 
	C510.574280,219.888992 510.201263,217.352493 509.893250,214.482300 
	C509.663818,213.413620 509.369446,212.678619 509.041321,211.970947 
	C509.007568,211.998291 509.090912,211.973770 509.056335,211.545822 
	C505.623657,198.139648 502.225525,185.161423 498.846802,171.804749 
	C497.588165,168.581314 496.310089,165.736313 495.004150,162.504272 
	C491.927307,155.089188 488.878296,148.061142 485.808289,140.717453 
	C484.939453,139.280319 484.091583,138.158859 483.131195,136.684464 
	C482.023285,134.509872 481.027924,132.688202 479.998718,130.522156 
	C479.246063,129.316238 478.527283,128.454712 477.861877,127.251465 
	C464.603119,103.264313 447.044037,83.103401 426.922791,64.657410 
	C425.690704,63.634464 424.598297,62.884174 423.268494,61.851875 
	C417.699371,57.433994 412.367645,53.298115 406.745422,49.048138 
	C405.664856,48.268883 404.874817,47.603733 404.084747,46.938583 
z"/>
<path fill="#FDFCFE" opacity="1.000000" stroke="none" 
	d="
M480.032562,130.866547 
	C481.027924,132.688202 482.023285,134.509872 482.904724,136.967072 
	C471.431458,142.233536 461.031342,149.423813 448.136353,151.285843 
	C447.928467,149.247803 447.672180,147.951584 447.684448,146.657913 
	C447.764679,138.180252 447.956726,129.703323 447.984772,121.225739 
	C447.991791,119.085411 447.744629,116.888573 447.203278,114.825562 
	C446.931946,113.791489 445.736389,112.999939 444.958862,112.098694 
	C444.417419,113.267769 443.412140,114.434959 443.407379,115.606216 
	C443.366913,125.568329 443.886902,135.546768 443.477264,145.488937 
	C443.140900,153.653824 446.370483,156.788834 454.213806,154.473938 
	C456.601624,153.769211 458.967804,152.930786 461.248840,151.935699 
	C469.464264,148.351791 477.639099,144.674881 485.829285,141.033112 
	C488.878296,148.061142 491.927307,155.089188 494.808899,162.872009 
	C494.469147,166.107758 493.749542,168.697281 494.216553,171.051407 
	C496.600525,183.068405 498.750183,195.178848 502.104004,206.936523 
	C503.762054,212.749176 507.837555,217.872253 510.819275,223.307343 
	C511.371368,224.058228 511.923462,224.809143 512.737793,225.280029 
	C513.000000,243.020889 513.000000,261.041779 512.723145,279.215576 
	C511.899902,279.940094 511.209930,280.429504 510.828094,281.095551 
	C503.738617,293.462738 496.681152,305.848297 489.629089,318.236908 
	C488.153320,320.829407 486.591980,323.388519 485.360474,326.095123 
	C485.006042,326.874176 485.666718,328.115051 485.861938,329.144196 
	C486.841644,328.802582 487.950195,328.640594 488.758636,328.060394 
	C489.362488,327.627045 489.547791,326.635315 489.972321,325.923798 
	C496.925354,314.270264 503.886810,302.621765 510.846375,290.972137 
	C509.082245,300.623566 507.335785,310.278259 505.541473,319.924072 
	C505.101318,322.290222 504.806000,324.752777 503.893890,326.941742 
	C503.017822,329.044312 501.428345,330.849579 499.729645,333.426880 
	C503.105225,338.556763 498.120087,343.530396 496.444153,348.758575 
	C494.211700,355.722900 490.582703,362.239471 486.919373,369.021088 
	C485.237976,368.022705 484.232666,366.906616 483.136780,365.887909 
	C476.745728,359.947266 473.339722,352.762756 474.987854,343.990814 
	C476.206146,337.506744 477.916321,331.086609 479.845856,324.771973 
	C482.207825,317.042084 484.709656,309.324219 487.722931,301.831177 
	C492.356781,290.308472 498.347382,279.327301 499.734955,266.648071 
	C500.843781,256.515717 501.290253,246.479645 494.935944,237.856155 
	C488.883118,229.641785 483.939209,220.549057 475.171448,214.406204 
	C468.683014,209.860275 462.680664,204.470886 457.069489,198.850510 
	C440.132355,181.885559 423.106903,164.978241 406.892242,147.334930 
	C398.341156,138.030441 392.533356,126.459412 393.156311,113.406464 
	C393.763763,100.678764 395.297485,87.876541 397.855774,75.400520 
	C399.700348,66.405190 403.891418,57.891026 407.035889,49.162243 
	C412.367645,53.298115 417.699371,57.433994 423.153046,62.193298 
	C415.565948,76.019424 407.849396,89.217743 400.153839,102.428299 
	C398.480835,105.300232 396.761688,108.158203 395.336670,111.152512 
	C394.981781,111.898216 395.689056,113.149445 395.908142,114.168320 
	C396.881561,113.801544 397.982483,113.606979 398.786560,113.011536 
	C399.390656,112.564186 399.588287,111.587135 400.009705,110.871094 
	C409.023621,95.555267 418.043671,80.243011 427.062500,64.930061 
	C447.044037,83.103401 464.603119,103.264313 477.471130,127.305008 
	C472.359955,129.182510 467.692780,130.664749 462.931305,132.176941 
	C462.193237,127.520447 461.998993,123.480881 460.836914,119.742104 
	C459.635559,115.876846 456.692413,115.627968 454.126495,118.992447 
	C459.115295,121.410049 457.882904,126.117699 458.180511,130.287582 
	C458.590576,136.033707 459.880768,137.201553 465.367554,135.703918 
	C470.326569,134.350327 475.149567,132.498611 480.032562,130.866547 
M435.032532,79.733292 
	C432.808899,81.769783 429.776489,83.395103 428.497101,85.911644 
	C421.819214,99.046936 415.525635,112.380150 409.287567,125.732895 
	C408.615173,127.172134 409.164459,129.182098 409.147034,130.927322 
	C410.436005,129.715286 411.728790,128.507217 413.007111,127.284012 
	C413.114014,127.181709 413.106445,126.968987 413.180573,126.821938 
	C420.555115,112.196037 427.945984,97.578308 435.271576,82.927948 
	C435.658112,82.154907 435.493347,81.106186 435.032532,79.733292 
M446.605347,179.944351 
	C447.841492,180.712082 449.077637,181.479813 450.313782,182.247543 
	C450.158295,180.640335 450.306244,178.917130 449.750458,177.462936 
	C449.312592,176.317368 447.868011,175.601334 447.111450,174.525192 
	C443.526459,169.425812 439.666931,164.471558 436.595093,159.073044 
	C433.652039,153.900787 431.622894,148.214218 429.030426,142.831543 
	C428.554688,141.843796 427.305450,141.228561 426.413300,140.441391 
	C426.026520,141.714813 424.918488,143.372528 425.361420,144.203857 
	C431.771423,156.234283 434.241302,170.621597 446.605347,179.944351 
M439.286804,105.180954 
	C441.095184,102.425179 443.030579,99.739609 444.620850,96.863228 
	C445.008392,96.162323 444.468872,94.700996 443.927826,93.866699 
	C443.734039,93.567825 441.742920,93.796623 441.481781,94.278046 
	C438.917419,99.005058 435.946899,103.636009 434.256927,108.684303 
	C431.651886,116.466057 429.921204,124.544022 427.939087,132.525986 
	C427.713684,133.433655 428.255005,134.531693 428.440796,135.541458 
	C429.415527,135.205673 430.855988,135.158447 431.276703,134.479416 
	C432.481934,132.534210 433.632050,130.419128 434.162567,128.216400 
	C435.942535,120.826302 437.443451,113.369003 439.286804,105.180954 
M478.111786,184.470337 
	C479.313965,188.602097 480.382202,192.780975 481.808258,196.833969 
	C482.186096,197.907791 483.665100,198.594162 484.638489,199.458420 
	C484.986084,198.177567 485.922058,196.714401 485.590454,195.643982 
	C482.225128,184.782288 480.531586,173.261612 473.659515,163.743713 
	C472.617065,162.299927 470.802826,161.413376 469.345551,160.269073 
	C469.644714,162.189499 469.597961,164.249435 470.306030,166.004929 
	C472.706177,171.955399 475.373413,177.798141 478.111786,184.470337 
M468.010925,187.335754 
	C467.658905,186.983612 467.358307,186.417740 466.945435,186.318375 
	C465.565674,185.986313 464.145752,185.821198 462.741211,185.592117 
	C463.235199,186.845078 463.465759,188.314499 464.279419,189.304810 
	C465.852783,191.219772 467.649719,192.994934 469.577911,194.550461 
	C470.247162,195.090408 471.579193,194.808807 472.608490,194.902435 
	C472.519196,193.870209 472.778625,192.597153 472.267151,191.856522 
	C471.243713,190.374619 469.798157,189.184204 468.010925,187.335754 
z"/>
<path fill="#FDFCFE" opacity="1.000000" stroke="none" 
	d="
M14.165303,174.858414 
	C16.213455,169.294846 18.261600,163.731262 20.952953,158.156677 
	C29.408644,165.582260 37.351089,172.888168 44.997963,180.491348 
	C53.038887,188.486328 52.153133,198.229797 49.489601,208.032562 
	C48.015297,213.458542 46.170086,218.793762 44.276245,224.092758 
	C42.553028,228.914383 40.840942,233.780060 38.594677,238.367142 
	C31.958736,251.918335 24.321060,265.001495 22.515022,280.456299 
	C21.227287,291.475891 22.130722,301.693695 29.897085,310.392303 
	C30.981607,311.606995 31.535250,313.279663 32.517963,314.604309 
	C35.352787,318.425537 37.906502,322.553192 41.246315,325.882690 
	C49.824314,334.434235 59.199223,342.214905 67.469093,351.040680 
	C81.913643,366.456207 95.939957,382.275116 109.808723,398.214539 
	C118.802986,408.551697 124.628319,420.770630 123.662071,434.613190 
	C122.787857,447.137238 119.844330,459.516876 117.813248,471.960175 
	C113.580856,469.190582 109.348457,466.420990 105.089638,463.001038 
	C106.936890,459.426544 108.818024,456.507172 110.682617,453.577271 
	C114.145805,448.135468 117.687515,442.739594 120.968475,437.189789 
	C121.504013,436.283875 120.870522,434.686890 120.777336,433.409302 
	C119.733978,433.940063 118.528625,434.292603 117.693092,435.052032 
	C116.867584,435.802399 116.435921,436.977234 115.796890,437.942963 
	C110.879501,445.374054 105.953712,452.799561 101.030540,460.226807 
	C98.076302,458.055359 95.122055,455.883942 92.235519,453.099823 
	C97.752487,441.700287 103.248932,430.936646 108.574493,420.089081 
	C109.079819,419.059814 108.514549,417.504974 108.446304,416.194092 
	C107.329285,416.850800 105.961044,417.291107 105.160553,418.220490 
	C104.216873,419.316040 103.774620,420.840027 103.097816,422.169495 
	C98.367691,431.461395 93.633141,440.750977 88.899994,450.041321 
	C86.297745,447.901337 83.695488,445.761383 81.055923,442.934998 
	C83.971611,432.647430 86.955025,423.055359 89.816658,413.427063 
	C90.032684,412.700226 89.381844,411.715759 89.133957,410.851044 
	C88.148216,411.186401 86.623558,411.236511 86.269188,411.906036 
	C84.655060,414.955811 83.061333,418.083038 82.033913,421.362152 
	C80.172958,427.301544 78.720161,433.368835 77.096970,439.382721 
	C75.454849,437.826782 73.812721,436.270844 72.340591,434.156006 
	C72.709824,431.125427 72.953262,428.656433 73.100357,426.181671 
	C73.620140,417.437225 73.876602,408.669769 74.674957,399.951477 
	C75.386566,392.180450 71.965385,388.633057 64.527275,390.963226 
	C57.480431,393.170776 50.709965,396.260590 43.817959,398.962402 
	C41.092285,394.705048 38.135357,390.575623 35.692909,386.161530 
	C31.619513,378.799957 27.875443,371.256134 23.977272,363.099121 
	C23.717033,362.089905 23.472229,361.770630 23.227425,361.451385 
	C23.227423,361.451385 23.220133,361.383209 23.293135,360.886963 
	C21.566732,351.635223 20.124760,342.785461 17.847361,334.156158 
	C16.219088,327.986420 14.113729,321.722137 8.163267,317.961700 
	C6.774364,311.633179 5.379570,305.305969 3.998873,298.975647 
	C3.230419,295.452423 2.485443,291.924072 1.364943,288.699005 
	C1.000000,286.958344 1.000000,284.916656 1.286666,282.735107 
	C2.958988,280.379150 4.441416,278.217102 5.713645,275.937714 
	C11.381395,265.783020 16.783403,255.473755 22.680445,245.455185 
	C27.825911,236.713486 33.568409,228.324783 38.872860,219.673264 
	C39.590763,218.502350 39.292950,216.708664 39.465454,215.203354 
	C38.190079,215.922531 36.430161,216.323120 35.715084,217.410690 
	C29.318123,227.139923 22.902334,236.868042 16.897562,246.840652 
	C11.339576,256.071289 6.279394,265.601624 0.999997,275.000000 
	C1.000000,262.645782 1.000000,250.291550 1.344381,237.442474 
	C4.823333,232.185516 8.913105,227.780838 10.861048,222.574738 
	C13.555676,215.373047 13.508363,207.794449 6.934936,201.920822 
	C7.355647,199.378311 7.776358,196.835815 8.748608,194.401016 
	C13.902292,200.120529 18.438251,205.789444 23.178061,211.282455 
	C23.887775,212.104980 25.553036,212.102997 26.776260,212.482437 
	C26.658318,211.299026 26.981846,209.751160 26.353031,208.989517 
	C21.010651,202.518372 15.494969,196.190292 10.031239,189.819336 
	C10.884835,186.528000 11.738432,183.236679 13.204468,179.719116 
	C18.369980,182.499908 22.869188,185.595490 27.527901,188.428787 
	C28.326721,188.914597 29.805696,188.282059 30.970478,188.166138 
	C30.467808,187.087662 30.258352,185.589828 29.414261,184.999619 
	C24.412888,181.502502 19.264353,178.215851 14.165303,174.858414 
M87.842834,400.819550 
	C88.223480,401.914185 88.414932,403.136536 89.041748,404.064972 
	C89.590622,404.877991 90.628624,405.360748 91.450569,405.989380 
	C91.934479,404.916321 92.691986,403.873627 92.815659,402.760559 
	C92.914505,401.870880 92.330742,400.852356 91.898582,399.964722 
	C86.232010,388.326050 83.961487,374.780853 73.006416,366.115234 
	C71.711113,365.090607 70.130989,364.426086 68.682907,363.594604 
	C69.116035,365.350677 69.367790,367.181549 70.049667,368.835052 
	C70.465317,369.842957 71.675568,370.491364 72.301712,371.449677 
	C75.526192,376.384644 78.977936,381.205963 81.761101,386.383667 
	C84.099831,390.734558 85.629990,395.520111 87.842834,400.819550 
M38.424088,365.069336 
	C40.998714,371.158264 43.510365,377.275574 46.228855,383.299591 
	C46.563286,384.040649 48.002834,384.282990 48.930267,384.756439 
	C49.266277,383.766907 49.936600,382.747070 49.850353,381.795807 
	C49.751320,380.703552 48.920719,379.695099 48.513931,378.610443 
	C46.024097,371.971527 43.447147,365.361542 41.146358,358.657104 
	C40.074455,355.533630 39.788769,352.138000 38.690056,349.027008 
	C38.149567,347.496613 36.569515,346.333374 35.459896,345.003967 
	C35.228104,346.589355 34.560955,348.257721 34.844376,349.744904 
	C35.775318,354.629730 37.051216,359.448792 38.424088,365.069336 
M57.026653,357.918823 
	C54.778660,355.308777 52.599331,352.633423 50.227680,350.141022 
	C49.722557,349.610199 48.220261,349.326599 47.714920,349.685638 
	C47.157433,350.081787 46.737617,351.740204 47.089310,352.172791 
	C49.260574,354.843506 51.584332,357.410736 54.088215,359.767120 
	C54.438484,360.096710 56.055573,359.080200 57.026653,357.918823 
z"/>
<path fill="#7636DB" opacity="1.000000" stroke="none" 
	d="
M0.999997,275.437500 
	C6.279394,265.601624 11.339576,256.071289 16.897562,246.840652 
	C22.902334,236.868042 29.318123,227.139923 35.715084,217.410690 
	C36.430161,216.323120 38.190079,215.922531 39.465454,215.203354 
	C39.292950,216.708664 39.590763,218.502350 38.872860,219.673264 
	C33.568409,228.324783 27.825911,236.713486 22.680445,245.455185 
	C16.783403,255.473755 11.381395,265.783020 5.713645,275.937714 
	C4.441416,278.217102 2.958988,280.379150 1.286666,282.297607 
	C1.000000,279.958344 1.000000,277.916656 0.999997,275.437500 
z"/>
<path fill="#7736DB" opacity="1.000000" stroke="none" 
	d="
M510.940063,290.591370 
	C503.886810,302.621765 496.925354,314.270264 489.972321,325.923798 
	C489.547791,326.635315 489.362488,327.627045 488.758636,328.060394 
	C487.950195,328.640594 486.841644,328.802582 485.861938,329.144196 
	C485.666718,328.115051 485.006042,326.874176 485.360474,326.095123 
	C486.591980,323.388519 488.153320,320.829407 489.629089,318.236908 
	C496.681152,305.848297 503.738617,293.462738 510.828094,281.095551 
	C511.209930,280.429504 511.899902,279.940094 512.723145,279.684204 
	C513.000000,282.700012 513.000000,285.400024 513.000000,288.550049 
	C512.344604,289.403564 511.689148,289.807098 510.940063,290.591370 
z"/>
<path fill="#7635DB" opacity="1.000000" stroke="none" 
	d="
M6.610385,202.126953 
	C13.508363,207.794449 13.555676,215.373047 10.861048,222.574738 
	C8.913105,227.780838 4.823333,232.185516 1.344381,236.973816 
	C1.000000,234.958328 1.000000,232.916672 1.247746,230.138275 
	C1.976728,229.456024 2.669451,229.745407 2.908152,229.530502 
	C8.339212,224.641006 9.836579,213.208389 5.926195,206.920090 
	C6.046075,205.391083 6.165955,203.862076 6.610385,202.126953 
z"/>
<path fill="#FAF8FE" opacity="1.000000" stroke="none" 
	d="
M5.558902,207.107758 
	C9.836579,213.208389 8.339212,224.641006 2.908152,229.530502 
	C2.669451,229.745407 1.976728,229.456024 1.247746,229.700775 
	C1.000000,228.611115 1.000000,227.222214 1.000001,225.416656 
	C1.650978,224.684387 2.812987,224.447754 2.875820,224.041245 
	C3.736467,218.473007 4.445382,212.881332 5.558902,207.107758 
z"/>
<path fill="#6E29D9" opacity="1.000000" stroke="none" 
	d="
M192.111145,353.002014 
	C192.142532,289.760284 192.142532,227.017303 192.142532,164.004059 
	C210.022964,164.004059 226.755081,164.004059 243.863815,164.004059 
	C243.091309,189.043854 242.324509,213.899368 241.549469,239.021454 
	C251.831345,239.021454 261.248108,239.021454 271.186890,239.021454 
	C271.186890,213.990692 271.186890,189.127960 271.186890,164.000641 
	C288.471039,164.000641 305.236328,164.000641 321.432617,164.000641 
	C321.432617,236.192795 321.432617,308.333466 321.432617,380.735229 
	C303.788300,380.735229 287.217590,380.735229 270.746857,380.735229 
	C270.746857,357.540344 270.746857,334.489258 270.746857,311.086365 
	C261.434540,311.086365 251.884842,311.086365 242.030396,311.086365 
	C242.030396,334.305115 242.030396,357.369080 242.030396,380.715607 
	C225.317780,380.715607 208.904175,380.715607 192.079773,380.715607 
	C192.079773,371.641968 192.079773,362.571320 192.111145,353.002014 
z"/>
<path fill="#7736DB" opacity="1.000000" stroke="none" 
	d="
M406.745422,49.048141 
	C403.891418,57.891026 399.700348,66.405190 397.855774,75.400520 
	C395.297485,87.876541 393.763763,100.678764 393.156311,113.406464 
	C392.533356,126.459412 398.341156,138.030441 406.892242,147.334930 
	C423.106903,164.978241 440.132355,181.885559 457.069489,198.850510 
	C462.680664,204.470886 468.683014,209.860275 475.171448,214.406204 
	C483.939209,220.549057 488.883118,229.641785 494.935944,237.856155 
	C501.290253,246.479645 500.843781,256.515717 499.734955,266.648071 
	C498.347382,279.327301 492.356781,290.308472 487.722931,301.831177 
	C484.709656,309.324219 482.207825,317.042084 479.845856,324.771973 
	C477.916321,331.086609 476.206146,337.506744 474.987854,343.990814 
	C473.339722,352.762756 476.745728,359.947266 483.136780,365.887909 
	C484.232666,366.906616 485.237976,368.022705 486.602478,369.232544 
	C486.451599,370.544891 485.983429,371.718445 485.223206,373.060944 
	C482.791748,371.144531 480.612091,369.098755 478.519897,366.967102 
	C468.871826,357.136932 469.144440,345.606720 472.860077,333.509033 
	C473.054199,332.876953 473.545441,332.310608 473.636566,331.676086 
	C476.474884,311.913330 487.554474,295.150604 493.578064,276.583893 
	C496.592957,267.291107 497.585419,257.350800 495.037170,247.515656 
	C494.705017,246.233688 494.492462,244.782776 493.740295,243.769577 
	C488.136902,236.221375 483.591675,227.319717 476.514038,221.534912 
	C449.846222,199.738342 426.532898,174.611862 403.306213,149.451141 
	C390.600067,135.686935 386.765472,118.213043 389.240997,99.595978 
	C391.636841,81.578056 395.012726,63.809841 403.866760,47.223324 
	C404.874817,47.603733 405.664856,48.268883 406.745422,49.048141 
z"/>
<path fill="#7635DB" opacity="1.000000" stroke="none" 
	d="
M117.965401,472.262939 
	C119.844330,459.516876 122.787857,447.137238 123.662071,434.613190 
	C124.628319,420.770630 118.802986,408.551697 109.808723,398.214539 
	C95.939957,382.275116 81.913643,366.456207 67.469093,351.040680 
	C59.199223,342.214905 49.824314,334.434235 41.246315,325.882690 
	C37.906502,322.553192 35.352787,318.425537 32.517963,314.604309 
	C31.535250,313.279663 30.981607,311.606995 29.897085,310.392303 
	C22.130722,301.693695 21.227287,291.475891 22.515022,280.456299 
	C24.321060,265.001495 31.958736,251.918335 38.594677,238.367142 
	C40.840942,233.780060 42.553028,228.914383 44.276245,224.092758 
	C46.170086,218.793762 48.015297,213.458542 49.489601,208.032562 
	C52.153133,198.229797 53.038887,188.486328 44.997963,180.491348 
	C37.351089,172.888168 29.408644,165.582260 21.292934,157.987808 
	C21.289726,156.755371 21.589743,155.680786 22.026377,154.284729 
	C34.292439,161.629730 44.334003,171.531586 52.103325,183.498398 
	C57.662228,192.060593 55.611969,201.400238 52.909050,210.485443 
	C52.581051,211.587952 51.660393,212.545685 51.462658,213.650711 
	C48.030678,232.830170 36.605789,248.734528 29.938595,266.558014 
	C26.452063,275.878601 24.596001,285.811920 26.943161,295.923828 
	C27.390097,297.849274 27.928305,299.850922 28.903553,301.540894 
	C36.064030,313.948792 44.933361,324.721710 55.892834,334.259644 
	C67.895508,344.705475 78.498497,356.797913 89.379227,368.482178 
	C97.654762,377.368927 105.630142,386.558807 113.349098,395.934906 
	C126.561989,411.984406 130.728394,430.385284 126.497925,450.697235 
	C124.906212,458.339630 123.196243,465.957367 121.249802,473.843445 
	C120.012123,473.588898 119.064842,473.077271 117.965401,472.262939 
z"/>
<path fill="#7736DB" opacity="1.000000" stroke="none" 
	d="
M461.396729,240.683197 
	C462.901154,243.480392 464.598694,245.866867 465.401581,248.523712 
	C470.500153,265.395599 474.064301,282.347717 468.533905,299.955963 
	C466.547150,306.281647 465.558014,312.916107 464.000793,319.382507 
	C462.250031,326.652710 458.282928,332.468750 451.949677,336.484161 
	C450.984955,337.095825 449.392944,336.718079 448.091064,336.797974 
	C448.609192,335.591522 448.785370,333.888947 449.700348,333.258240 
	C456.155396,328.808960 459.405579,322.596588 460.776917,315.040833 
	C462.793823,303.927734 465.884888,292.943176 467.008240,281.752258 
	C468.220306,269.677765 464.267853,258.059235 460.138123,246.823944 
	C458.955231,243.605774 455.833893,241.020111 453.358765,238.371140 
	C444.008881,228.364655 433.565430,219.837631 421.985321,212.321594 
	C406.863922,202.507065 392.725647,191.181412 378.124481,180.560776 
	C361.907074,168.764496 362.641174,145.693497 368.852142,130.874985 
	C370.501556,126.939735 371.816986,122.864288 373.474396,118.932716 
	C373.830383,118.088264 375.002258,117.587730 375.798248,116.928757 
	C376.396332,117.821854 377.659576,118.888336 377.479645,119.578613 
	C376.610718,122.912155 375.782288,126.378075 374.153442,129.368927 
	C369.231079,138.407196 368.334137,148.044449 369.370056,157.968628 
	C370.315063,167.021469 375.489502,173.533447 382.599030,178.826965 
	C388.456024,183.187866 394.131683,187.792313 399.889343,192.286697 
	C400.413971,192.696213 400.932739,193.116898 401.484406,193.487488 
	C411.381531,200.135803 421.741180,206.198547 431.062744,213.573517 
	C441.586975,221.900024 451.178802,231.405014 461.396729,240.683197 
z"/>
<path fill="#7737DC" opacity="1.000000" stroke="none" 
	d="
M69.249329,212.206238 
	C71.138710,210.813599 72.677124,209.477676 74.445961,208.613342 
	C75.206650,208.241638 76.445312,208.848099 77.466827,209.010162 
	C77.173515,209.990677 77.180946,211.517670 76.541649,211.869461 
	C67.385033,216.908463 64.583061,225.668167 62.695030,235.008011 
	C60.431015,246.207748 56.728657,257.354919 56.328045,268.620117 
	C55.988781,278.160156 59.329498,287.864502 61.355499,297.429657 
	C61.812229,299.585968 63.260937,301.749023 64.785904,303.423737 
	C70.611748,309.821564 76.101440,316.695892 82.740524,322.144806 
	C94.124306,331.487885 106.471863,339.646881 118.046402,348.770386 
	C127.555481,356.265900 137.224197,363.775116 145.561310,372.485138 
	C155.443863,382.809692 155.941742,403.697083 148.375961,418.157959 
	C146.480621,421.780640 145.231140,425.736572 143.528641,429.468079 
	C143.123871,430.355225 142.090530,430.955597 141.346313,431.687866 
	C140.704895,430.809113 139.383575,429.777313 139.540909,429.078400 
	C140.187897,426.204102 140.780167,423.114960 142.307571,420.678406 
	C147.456848,412.464020 149.202026,403.587280 149.198486,394.026123 
	C149.194946,384.501160 145.606323,376.957336 138.430679,370.913910 
	C131.698486,365.244019 125.189041,359.289490 118.234390,353.908936 
	C109.208565,346.925964 100.054153,340.064514 90.563232,333.738739 
	C78.725906,325.849060 69.947182,314.954742 60.557995,304.639069 
	C59.044422,302.976135 57.890968,300.703522 57.312229,298.516602 
	C53.041977,282.380524 49.198349,266.217773 54.357193,249.455872 
	C56.751499,241.676392 58.174145,233.568192 60.976337,225.954636 
	C62.753803,221.125290 66.260536,216.932388 69.249329,212.206238 
z"/>
<path fill="#7738DC" opacity="1.000000" stroke="none" 
	d="
M37.325623,125.942596 
	C37.545170,124.870216 38.099121,123.909203 38.946808,122.740829 
	C64.831841,136.519012 84.568230,155.561264 92.768593,184.552612 
	C93.719391,187.914032 94.818970,191.260925 95.386559,194.691162 
	C95.656151,196.320465 94.835152,198.130188 94.508194,199.858185 
	C93.529190,198.538605 92.148659,197.357285 91.638733,195.876205 
	C89.045418,188.343811 87.261192,180.482178 84.121078,173.198227 
	C74.787933,151.548645 57.393299,137.590286 37.325623,125.942596 
z"/>
<path fill="#7737DC" opacity="1.000000" stroke="none" 
	d="
M448.094452,291.488281 
	C448.123779,290.328705 448.109802,289.445007 448.455872,288.737457 
	C455.120117,275.112030 452.713409,262.716339 442.665771,251.950027 
	C435.191162,243.940781 426.890594,236.707001 419.119659,228.965485 
	C417.658752,227.510071 416.960846,225.288757 415.910858,223.420868 
	C417.923920,224.274994 420.383362,224.655289 421.876190,226.061630 
	C430.344086,234.038803 439.039551,241.850754 446.782806,250.501923 
	C457.020142,261.939606 459.124023,275.218018 452.650909,289.423859 
	C451.924194,291.018677 451.465942,294.331482 448.094452,291.488281 
z"/>
<path fill="#7736DB" opacity="1.000000" stroke="none" 
	d="
M103.131172,318.858704 
	C103.901802,320.642059 104.435234,322.163513 104.968666,323.684937 
	C103.458122,323.116638 101.523689,322.961487 100.503784,321.915039 
	C92.025246,313.215668 83.193336,304.782440 75.482903,295.432068 
	C65.155968,282.908691 64.047096,267.843903 71.429169,255.450424 
	C72.040108,254.424759 73.557526,253.939026 74.653763,253.202423 
	C74.827965,254.468338 75.579323,256.044189 75.090698,256.954193 
	C66.268486,273.384521 72.151901,286.814758 83.623596,299.019501 
	C89.893265,305.689819 96.460785,312.080200 103.131172,318.858704 
z"/>
<path fill="#7736DB" opacity="1.000000" stroke="none" 
	d="
M370.429321,93.528015 
	C368.441376,101.480637 366.695709,109.086723 364.667236,116.616623 
	C364.274994,118.072754 362.777161,119.231041 361.789307,120.526726 
	C361.424591,118.950233 360.511993,117.274277 360.777405,115.812202 
	C364.696411,94.227417 371.845764,73.780922 382.758331,54.700359 
	C383.252716,53.835926 383.580566,52.734402 384.316376,52.188759 
	C385.093231,51.612652 386.266205,51.570694 387.266144,51.295403 
	C387.442596,52.204636 387.987213,53.245808 387.718567,53.995552 
	C387.165405,55.539143 386.042694,56.869034 385.390289,58.388176 
	C380.419159,69.963341 375.504974,81.562935 370.429321,93.528015 
z"/>
<path fill="#7737DC" opacity="1.000000" stroke="none" 
	d="
M467.543488,402.535156 
	C467.128967,403.711487 466.368042,404.778290 465.322205,405.974335 
	C446.361664,392.247253 436.016174,373.123291 430.405518,351.066040 
	C430.076599,349.773071 430.908478,348.184875 431.200195,346.734070 
	C432.203583,347.760071 433.608856,348.609985 434.147491,349.839539 
	C438.932220,360.762054 442.508453,372.384857 448.585846,382.514282 
	C453.156036,390.131500 460.878113,395.857666 467.543488,402.535156 
z"/>
<path fill="#7838DC" opacity="1.000000" stroke="none" 
	d="
M418.827515,350.901001 
	C417.670959,353.146667 416.904907,355.218597 415.659790,356.945007 
	C414.857819,358.056976 413.352234,358.661560 412.161987,359.493561 
	C412.106995,358.047516 411.505219,356.320068 412.082031,355.199097 
	C417.619995,344.436646 423.100220,333.628937 429.132751,323.142426 
	C432.757019,316.842316 437.257568,311.034790 441.558960,305.148102 
	C442.200195,304.270569 443.912811,304.175903 445.129761,303.719055 
	C445.025818,305.009674 445.346558,306.551514 444.754089,307.553253 
	C436.246552,321.938446 427.615936,336.250824 418.827515,350.901001 
z"/>
<path fill="#7838DC" opacity="1.000000" stroke="none" 
	d="
M105.828354,206.858978 
	C98.976044,217.290237 92.311180,227.407516 85.602539,237.495682 
	C84.871681,238.594742 84.042480,239.752640 82.980850,240.474121 
	C81.813271,241.267654 80.324150,241.588058 78.975113,242.114594 
	C79.294952,240.716171 79.247971,239.073303 79.991623,237.957275 
	C87.075691,227.325882 94.428703,216.871948 101.414848,206.177856 
	C104.768417,201.044342 107.403625,195.445953 110.594017,190.197830 
	C111.267876,189.089355 112.945274,188.590927 114.160286,187.811417 
	C114.131569,189.276413 114.588341,190.989059 113.989441,192.163223 
	C111.500587,197.042709 108.693398,201.759827 105.828354,206.858978 
z"/>
<path fill="#7838DC" opacity="1.000000" stroke="none" 
	d="
M137.620163,483.522217 
	C136.529419,483.273590 135.536102,482.668091 134.249817,481.949829 
	C142.072479,465.783813 148.490005,449.117523 152.418915,431.516663 
	C152.682953,430.333801 154.381439,429.471100 155.412750,428.459503 
	C155.691177,429.924438 156.463135,431.495911 156.173340,432.838196 
	C152.367798,450.464813 146.139877,467.222046 137.620163,483.522217 
z"/>
<path fill="#793ADC" opacity="1.000000" stroke="none" 
	d="
M53.532974,318.096069 
	C52.717354,312.868835 55.676254,314.724274 57.353004,316.052124 
	C63.209190,320.689850 68.785667,325.678589 74.558266,330.424652 
	C81.586746,336.203217 88.736710,341.834320 95.744102,347.637909 
	C96.541710,348.298492 96.759880,349.658661 97.246719,350.694458 
	C96.086151,350.846527 94.525536,351.559601 93.828072,351.062225 
	C88.041702,346.936096 82.250168,342.785217 76.779144,338.256531 
	C68.977325,331.798431 61.445881,325.013763 53.532974,318.096069 
z"/>
<path fill="#7838DC" opacity="1.000000" stroke="none" 
	d="
M458.781677,220.263718 
	C461.462830,222.262970 463.994415,223.892578 466.228516,225.859970 
	C467.129395,226.653259 467.379089,228.185944 467.925110,229.382141 
	C466.578125,229.298172 464.839569,229.728638 463.946198,229.048691 
	C456.951294,223.724686 450.200500,218.080185 443.211060,212.748688 
	C437.044586,208.044922 430.635101,203.660583 424.421936,199.016159 
	C423.581757,198.388123 423.260468,197.065933 422.698883,196.065186 
	C423.857758,195.828003 425.401703,194.990936 426.114594,195.448547 
	C431.810394,199.104797 437.513702,202.790115 442.889221,206.893005 
	C448.291870,211.016602 453.320221,215.630630 458.781677,220.263718 
z"/>
<path fill="#7939DC" opacity="1.000000" stroke="none" 
	d="
M44.477943,296.552856 
	C46.655014,298.116577 48.656803,299.341705 50.377174,300.881287 
	C51.039928,301.474396 51.062767,302.782532 51.377159,303.764893 
	C50.224895,303.842590 48.832798,304.383057 47.956177,303.928772 
	C33.802837,296.594666 29.310825,287.145813 32.515759,271.578003 
	C33.250698,268.008087 34.088989,264.439697 35.222313,260.982910 
	C35.586891,259.870941 37.050850,259.119354 38.011856,258.202911 
	C38.382763,259.457245 39.230518,260.787964 39.043846,261.952942 
	C38.128895,267.662933 36.661858,273.292725 35.914635,279.019287 
	C34.947979,286.427490 37.677013,292.360229 44.477943,296.552856 
z"/>
<path fill="#7636DB" opacity="1.000000" stroke="none" 
	d="
M491.025024,263.212006 
	C490.121216,270.053894 489.336975,276.458069 488.199066,282.798767 
	C487.985962,283.986359 486.357880,284.920013 485.382751,285.970886 
	C485.049622,284.528870 484.286713,283.033051 484.459167,281.654236 
	C485.136536,276.238007 486.397949,270.885437 486.901550,265.459045 
	C487.610870,257.815918 484.484528,251.933197 477.734406,248.048416 
	C475.580902,246.809052 473.450714,245.479660 471.519928,243.929810 
	C470.848907,243.391144 470.811768,242.062805 470.485107,241.095139 
	C471.498596,240.916519 472.801758,240.239578 473.481659,240.634796 
	C482.194580,245.699402 491.014923,250.762375 491.025024,263.212006 
z"/>
<path fill="#793ADC" opacity="1.000000" stroke="none" 
	d="
M28.328442,142.922241 
	C28.475348,141.591797 28.940042,140.389069 29.699589,139.024475 
	C39.670124,147.726776 49.394676,156.539047 58.947861,165.533356 
	C59.931004,166.458969 59.890896,168.471436 60.325596,169.979584 
	C58.953770,169.432251 57.286301,169.213364 56.256313,168.286255 
	C46.989300,159.944885 37.834194,151.479172 28.328442,142.922241 
z"/>
<path fill="#7838DC" opacity="1.000000" stroke="none" 
	d="
M379.952698,154.997406 
	C379.036255,151.216492 378.033020,147.855820 377.451019,144.423706 
	C377.292023,143.486130 378.398193,142.333984 378.923737,141.280304 
	C379.723785,141.965714 380.981110,142.509964 381.243958,143.361237 
	C382.321503,146.851227 382.757935,150.566315 384.073669,153.948273 
	C385.494934,157.601593 387.709198,160.939407 389.419556,164.490952 
	C390.037903,165.774963 390.198730,167.279343 390.568329,168.683167 
	C389.130676,168.184006 387.016693,168.115356 386.376129,167.108871 
	C383.996399,163.369934 382.101501,159.322403 379.952698,154.997406 
z"/>
<path fill="#7738DC" opacity="1.000000" stroke="none" 
	d="
M137.473114,406.443115 
	C136.472244,403.276245 136.041458,400.272827 134.978348,397.512909 
	C133.044495,392.492493 130.703262,387.630157 128.610458,382.668762 
	C128.214905,381.731018 128.183807,380.639496 127.984512,379.618958 
	C129.132584,379.701447 130.841644,379.334229 131.330994,379.944733 
	C133.381134,382.502441 135.695236,385.134247 136.742310,388.145844 
	C138.476639,393.134216 139.458542,398.410034 140.370987,403.632324 
	C140.519470,404.482208 138.679138,405.679565 137.473114,406.443115 
z"/>
<path fill="#7737DC" opacity="1.000000" stroke="none" 
	d="
M370.958221,45.084824 
	C372.504822,42.318668 373.831879,39.837646 375.515472,37.628262 
	C375.902069,37.120895 377.513916,37.547192 378.561920,37.543812 
	C378.480530,38.441742 378.557526,39.389698 378.292236,40.229542 
	C376.469910,45.998367 374.676086,51.780338 372.641205,57.475231 
	C372.066406,59.083813 370.719025,60.416321 369.725952,61.875450 
	C369.348022,60.148491 368.490967,58.364288 368.689087,56.706158 
	C369.140564,52.927460 370.109497,49.210598 370.958221,45.084824 
z"/>
<path fill="#7939DC" opacity="1.000000" stroke="none" 
	d="
M458.816040,357.299011 
	C459.197327,361.366577 459.687103,364.991730 459.774078,368.626495 
	C459.802795,369.827362 458.792358,371.053040 458.257080,372.267365 
	C457.431396,371.293610 456.050079,370.411652 455.871552,369.330994 
	C454.821472,362.973816 453.981995,356.578033 453.275726,350.172729 
	C453.187408,349.371857 454.302246,348.438324 454.859558,347.566223 
	C455.604858,348.079010 456.809357,348.453064 457.013641,349.129242 
	C457.775940,351.652618 458.210236,354.275055 458.816040,357.299011 
z"/>
<path fill="#7737DC" opacity="1.000000" stroke="none" 
	d="
M72.527031,194.030792 
	C72.103600,195.596222 71.549606,196.763931 70.995621,197.931625 
	C70.130173,196.906158 68.632217,195.953445 68.504555,194.843140 
	C67.807434,188.780502 67.344398,182.683853 67.063866,176.586807 
	C67.012001,175.459641 68.165283,174.277023 68.762337,173.120010 
	C69.522331,174.361725 70.796806,175.542297 70.952911,176.855774 
	C71.615005,182.426712 71.945084,188.037109 72.527031,194.030792 
z"/>
<path fill="#7839DC" opacity="1.000000" stroke="none" 
	d="
M479.011780,384.680054 
	C478.647034,385.921112 478.138214,386.851959 477.342407,387.933685 
	C473.819550,385.029144 470.479828,382.072235 467.421082,378.848694 
	C466.659943,378.046570 466.806824,376.382843 466.536346,375.115143 
	C467.808105,375.445007 469.399719,375.403381 470.293243,376.172577 
	C473.285889,378.748840 476.029053,381.614807 479.011780,384.680054 
z"/>
<path fill="#FCFBFE" opacity="1.000000" stroke="none" 
	d="
M51.112701,409.447540 
	C49.408115,407.242859 47.703529,405.038147 46.331741,402.341064 
	C53.045670,399.515198 59.393990,397.085846 65.821182,394.887024 
	C69.245956,393.715332 70.687431,395.121216 70.479538,398.826080 
	C69.875107,409.597473 69.477798,420.380493 68.999252,431.158936 
	C65.706779,427.659485 62.414299,424.160004 59.076988,419.898407 
	C59.171917,408.324585 59.118572,408.259338 51.112701,409.447540 
z"/>
<path fill="#7A3BDC" opacity="1.000000" stroke="none" 
	d="
M69.086952,431.449646 
	C69.477798,420.380493 69.875107,409.597473 70.479538,398.826080 
	C70.687431,395.121216 69.245956,393.715332 65.821182,394.887024 
	C59.393990,397.085846 53.045670,399.515198 46.323494,401.985413 
	C45.322121,401.286316 44.661800,400.450500 43.909714,399.288513 
	C50.709965,396.260590 57.480431,393.170776 64.527275,390.963226 
	C71.965385,388.633057 75.386566,392.180450 74.674957,399.951477 
	C73.876602,408.669769 73.620140,417.437225 73.100357,426.181671 
	C72.953262,428.656433 72.709824,431.125427 72.227112,433.840912 
	C71.020653,433.303314 70.097656,432.521851 69.086952,431.449646 
z"/>
<path fill="#7838DC" opacity="1.000000" stroke="none" 
	d="
M8.105766,318.358917 
	C14.113729,321.722137 16.219088,327.986420 17.847361,334.156158 
	C20.124760,342.785461 21.566732,351.635223 23.280155,360.855194 
	C19.796970,352.849060 16.198164,344.451935 13.074467,335.881592 
	C11.041369,330.303467 9.699696,324.473358 8.105766,318.358917 
z"/>
<path fill="#7737DC" opacity="1.000000" stroke="none" 
	d="
M89.027664,450.325989 
	C93.633141,440.750977 98.367691,431.461395 103.097816,422.169495 
	C103.774620,420.840027 104.216873,419.316040 105.160553,418.220490 
	C105.961044,417.291107 107.329285,416.850800 108.446304,416.194092 
	C108.514549,417.504974 109.079819,419.059814 108.574493,420.089081 
	C103.248932,430.936646 97.752487,441.700287 92.107315,452.776306 
	C90.992706,452.247192 90.074013,451.428894 89.027664,450.325989 
z"/>
<path fill="#7737DC" opacity="1.000000" stroke="none" 
	d="
M101.138763,460.517700 
	C105.953712,452.799561 110.879501,445.374054 115.796890,437.942963 
	C116.435921,436.977234 116.867584,435.802399 117.693092,435.052032 
	C118.528625,434.292603 119.733978,433.940063 120.777336,433.409302 
	C120.870522,434.686890 121.504013,436.283875 120.968475,437.189789 
	C117.687515,442.739594 114.145805,448.135468 110.682617,453.577271 
	C108.818024,456.507172 106.936890,459.426544 104.943039,462.677246 
	C103.630905,462.272064 102.438950,461.540344 101.138763,460.517700 
z"/>
<path fill="#7737DC" opacity="1.000000" stroke="none" 
	d="
M77.194458,439.651184 
	C78.720161,433.368835 80.172958,427.301544 82.033913,421.362152 
	C83.061333,418.083038 84.655060,414.955811 86.269188,411.906036 
	C86.623558,411.236511 88.148216,411.186401 89.133957,410.851044 
	C89.381844,411.715759 90.032684,412.700226 89.816658,413.427063 
	C86.955025,423.055359 83.971611,432.647430 80.916000,442.621490 
	C79.639580,441.969513 78.465767,440.944580 77.194458,439.651184 
z"/>
<path fill="#712EDA" opacity="1.000000" stroke="none" 
	d="
M51.058907,409.765076 
	C59.118572,408.259338 59.171917,408.324585 58.943928,419.583069 
	C56.238842,416.714111 53.621979,413.398376 51.058907,409.765076 
z"/>
<path fill="#7838DC" opacity="1.000000" stroke="none" 
	d="
M23.153080,361.770752 
	C23.472229,361.770630 23.717033,362.089905 23.914438,362.718781 
	C23.604273,362.715668 23.341503,362.402893 23.153080,361.770752 
z"/>
<path fill="#7636DB" opacity="1.000000" stroke="none" 
	d="
M9.707466,190.020523 
	C15.494969,196.190292 21.010651,202.518372 26.353031,208.989517 
	C26.981846,209.751160 26.658318,211.299026 26.776260,212.482437 
	C25.553036,212.102997 23.887775,212.104980 23.178061,211.282455 
	C18.438251,205.789444 13.902292,200.120529 9.102658,194.232910 
	C9.064677,192.711975 9.224185,191.466843 9.707466,190.020523 
z"/>
<path fill="#7839DC" opacity="1.000000" stroke="none" 
	d="
M14.051022,175.191742 
	C19.264353,178.215851 24.412888,181.502502 29.414261,184.999619 
	C30.258352,185.589828 30.467808,187.087662 30.970478,188.166138 
	C29.805696,188.282059 28.326721,188.914597 27.527901,188.428787 
	C22.869188,185.595490 18.369980,182.499908 13.461714,179.389313 
	C13.383263,178.032181 13.660003,176.778641 14.051022,175.191742 
z"/>
<path fill="#7636DB" opacity="1.000000" stroke="none" 
	d="
M485.808289,140.717453 
	C477.639099,144.674881 469.464264,148.351791 461.248840,151.935699 
	C458.967804,152.930786 456.601624,153.769211 454.213806,154.473938 
	C446.370483,156.788834 443.140900,153.653824 443.477264,145.488937 
	C443.886902,135.546768 443.366913,125.568329 443.407379,115.606216 
	C443.412140,114.434959 444.417419,113.267769 444.958862,112.098694 
	C445.736389,112.999939 446.931946,113.791489 447.203278,114.825562 
	C447.744629,116.888573 447.991791,119.085411 447.984772,121.225739 
	C447.956726,129.703323 447.764679,138.180252 447.684448,146.657913 
	C447.672180,147.951584 447.928467,149.247803 448.136353,151.285843 
	C461.031342,149.423813 471.431458,142.233536 483.017273,137.319977 
	C484.091583,138.158859 484.939453,139.280319 485.808289,140.717453 
z"/>
<path fill="#7737DC" opacity="1.000000" stroke="none" 
	d="
M426.922791,64.657410 
	C418.043671,80.243011 409.023621,95.555267 400.009705,110.871094 
	C399.588287,111.587135 399.390656,112.564186 398.786560,113.011536 
	C397.982483,113.606979 396.881561,113.801544 395.908142,114.168320 
	C395.689056,113.149445 394.981781,111.898216 395.336670,111.152512 
	C396.761688,108.158203 398.480835,105.300232 400.153839,102.428299 
	C407.849396,89.217743 415.565948,76.019424 423.390442,62.475304 
	C424.598297,62.884174 425.690704,63.634464 426.922791,64.657410 
z"/>
<path fill="#7736DB" opacity="1.000000" stroke="none" 
	d="
M510.883270,222.866425 
	C507.837555,217.872253 503.762054,212.749176 502.104004,206.936523 
	C498.750183,195.178848 496.600525,183.068405 494.216553,171.051407 
	C493.749542,168.697281 494.469147,166.107758 494.836761,163.259064 
	C496.310089,165.736313 497.588165,168.581314 498.631775,172.070312 
	C501.331024,185.214828 504.242279,197.720795 507.258209,210.201447 
	C507.426788,210.899109 508.460083,211.387802 509.090912,211.973770 
	C509.090912,211.973770 509.007568,211.998291 508.766693,212.208832 
	C508.959961,213.218246 509.394135,214.017105 509.828278,214.815979 
	C510.201263,217.352493 510.574280,219.888992 510.883270,222.866425 
z"/>
<path fill="#7737DC" opacity="1.000000" stroke="none" 
	d="
M479.998718,130.522156 
	C475.149567,132.498611 470.326569,134.350327 465.367554,135.703918 
	C459.880768,137.201553 458.590576,136.033707 458.180511,130.287582 
	C457.882904,126.117699 459.115295,121.410049 454.126495,118.992447 
	C456.692413,115.627968 459.635559,115.876846 460.836914,119.742104 
	C461.998993,123.480881 462.193237,127.520447 462.931305,132.176941 
	C467.692780,130.664749 472.359955,129.182510 477.417816,127.646721 
	C478.527283,128.454712 479.246063,129.316238 479.998718,130.522156 
z"/>
<path fill="#F6F1FD" opacity="1.000000" stroke="none" 
	d="
M509.056335,211.545822 
	C508.460083,211.387802 507.426788,210.899109 507.258209,210.201447 
	C504.242279,197.720795 501.331024,185.214828 498.612366,172.448746 
	C502.225525,185.161423 505.623657,198.139648 509.056335,211.545822 
z"/>
<path fill="#F6F1FD" opacity="1.000000" stroke="none" 
	d="
M509.893250,214.482300 
	C509.394135,214.017105 508.959961,213.218246 508.800446,212.181488 
	C509.369446,212.678619 509.663818,213.413620 509.893250,214.482300 
z"/>
<path fill="#7737DC" opacity="1.000000" stroke="none" 
	d="
M435.308899,79.959549 
	C435.493347,81.106186 435.658112,82.154907 435.271576,82.927948 
	C427.945984,97.578308 420.555115,112.196037 413.180573,126.821938 
	C413.106445,126.968987 413.114014,127.181709 413.007111,127.284012 
	C411.728790,128.507217 410.436005,129.715286 409.147034,130.927322 
	C409.164459,129.182098 408.615173,127.172134 409.287567,125.732895 
	C415.525635,112.380150 421.819214,99.046936 428.497101,85.911644 
	C429.776489,83.395103 432.808899,81.769783 435.308899,79.959549 
z"/>
<path fill="#7839DC" opacity="1.000000" stroke="none" 
	d="
M446.378113,179.667267 
	C434.241302,170.621597 431.771423,156.234283 425.361420,144.203857 
	C424.918488,143.372528 426.026520,141.714813 426.413269,140.441391 
	C427.305450,141.228561 428.554688,141.843796 429.030426,142.831543 
	C431.622894,148.214218 433.652039,153.900787 436.595093,159.073044 
	C439.666931,164.471558 443.526459,169.425812 447.111450,174.525192 
	C447.868011,175.601334 449.312592,176.317368 449.750458,177.462936 
	C450.306244,178.917130 450.158295,180.640335 450.313782,182.247543 
	C449.077637,181.479813 447.841492,180.712082 446.378113,179.667267 
z"/>
<path fill="#7839DC" opacity="1.000000" stroke="none" 
	d="
M439.169006,105.559189 
	C437.443451,113.369003 435.942535,120.826302 434.162567,128.216400 
	C433.632050,130.419128 432.481934,132.534210 431.276703,134.479416 
	C430.855988,135.158447 429.415527,135.205673 428.440796,135.541473 
	C428.255005,134.531693 427.713684,133.433655 427.939087,132.525986 
	C429.921204,124.544022 431.651886,116.466057 434.256927,108.684303 
	C435.946899,103.636009 438.917419,99.005058 441.481781,94.278046 
	C441.742920,93.796623 443.734039,93.567825 443.927826,93.866699 
	C444.468872,94.700996 445.008392,96.162323 444.620850,96.863228 
	C443.030579,99.739609 441.095184,102.425179 439.169006,105.559189 
z"/>
<path fill="#793ADC" opacity="1.000000" stroke="none" 
	d="
M478.025208,184.076202 
	C475.373413,177.798141 472.706177,171.955399 470.306030,166.004929 
	C469.597961,164.249435 469.644714,162.189499 469.345581,160.269073 
	C470.802826,161.413376 472.617065,162.299927 473.659515,163.743713 
	C480.531586,173.261612 482.225128,184.782288 485.590454,195.643982 
	C485.922058,196.714401 484.986084,198.177567 484.638489,199.458435 
	C483.665100,198.594162 482.186096,197.907791 481.808258,196.833969 
	C480.382202,192.780975 479.313965,188.602097 478.025208,184.076202 
z"/>
<path fill="#7B3DDD" opacity="1.000000" stroke="none" 
	d="
M468.268921,187.604599 
	C469.798157,189.184204 471.243713,190.374619 472.267151,191.856522 
	C472.778625,192.597153 472.519196,193.870209 472.608490,194.902435 
	C471.579193,194.808807 470.247162,195.090408 469.577911,194.550461 
	C467.649719,192.994934 465.852783,191.219772 464.279419,189.304810 
	C463.465759,188.314499 463.235199,186.845078 462.741211,185.592117 
	C464.145752,185.821198 465.565674,185.986313 466.945435,186.318375 
	C467.358307,186.417740 467.658905,186.983612 468.268921,187.604599 
z"/>
<path fill="#7839DC" opacity="1.000000" stroke="none" 
	d="
M87.680473,400.466370 
	C85.629990,395.520111 84.099831,390.734558 81.761101,386.383667 
	C78.977936,381.205963 75.526192,376.384644 72.301712,371.449677 
	C71.675568,370.491364 70.465317,369.842957 70.049667,368.835052 
	C69.367790,367.181549 69.116035,365.350677 68.682907,363.594604 
	C70.130989,364.426086 71.711113,365.090607 73.006416,366.115234 
	C83.961487,374.780853 86.232010,388.326050 91.898582,399.964722 
	C92.330742,400.852356 92.914505,401.870880 92.815659,402.760559 
	C92.691986,403.873627 91.934479,404.916321 91.450562,405.989380 
	C90.628624,405.360748 89.590622,404.877991 89.041748,404.064972 
	C88.414932,403.136536 88.223480,401.914185 87.680473,400.466370 
z"/>
<path fill="#7838DC" opacity="1.000000" stroke="none" 
	d="
M38.309326,364.681213 
	C37.051216,359.448792 35.775318,354.629730 34.844376,349.744904 
	C34.560955,348.257721 35.228104,346.589355 35.459892,345.003967 
	C36.569515,346.333374 38.149567,347.496613 38.690056,349.027008 
	C39.788769,352.138000 40.074455,355.533630 41.146358,358.657104 
	C43.447147,365.361542 46.024097,371.971527 48.513931,378.610443 
	C48.920719,379.695099 49.751320,380.703552 49.850353,381.795807 
	C49.936600,382.747070 49.266277,383.766907 48.930267,384.756439 
	C48.002834,384.282990 46.563286,384.040649 46.228855,383.299591 
	C43.510365,377.275574 40.998714,371.158264 38.309326,364.681213 
z"/>
<path fill="#7738DC" opacity="1.000000" stroke="none" 
	d="
M57.056458,358.302795 
	C56.055573,359.080200 54.438484,360.096710 54.088215,359.767120 
	C51.584332,357.410736 49.260574,354.843506 47.089310,352.172791 
	C46.737617,351.740204 47.157433,350.081787 47.714920,349.685638 
	C48.220261,349.326599 49.722557,349.610199 50.227680,350.141022 
	C52.599331,352.633423 54.778660,355.308777 57.056458,358.302795 
z"/>
</svg>
